<svg xmlns="http://www.w3.org/2000/svg" width="169" height="116.823" viewBox="0 0 169 116.823">
  <g id="Grupo_166218" data-name="Grupo 166218" transform="translate(8899 7132.46)">
    <g id="Grupo_163201" data-name="Grupo 163201" transform="translate(-9079 -11639.637)">
      <path id="Trazado_113613" data-name="Trazado 113613" d="M-22,0H107a40,40,0,0,1,0,80H-22Z" transform="translate(202 4523)" fill="rgba(121,210,220,0.2)"/>
      <g id="almacen" transform="translate(204 4506.177)">
        <g id="Grupo_163199" data-name="Grupo 163199" transform="translate(2.884 2.884)">
          <g id="Grupo_163178" data-name="Grupo 163178" transform="translate(11.305 18.842)">
            <path id="Trazado_231308" data-name="Trazado 231308" d="M8,12h97.981V91.138H8Z" transform="translate(-8 -12)" fill="#aab2bd"/>
          </g>
          <g id="Grupo_163179" data-name="Grupo 163179" transform="translate(97.981 7.537)">
            <path id="Trazado_231309" data-name="Trazado 231309" d="M69.074,6V17.305H54V6Z" transform="translate(-54 -6)" fill="#cf9e76"/>
          </g>
          <g id="Grupo_163180" data-name="Grupo 163180" transform="translate(75.37 7.537)">
            <path id="Trazado_231310" data-name="Trazado 231310" d="M42,6H57.074V17.305H42Z" transform="translate(-42 -6)" fill="#cf9e76"/>
          </g>
          <g id="Grupo_163181" data-name="Grupo 163181" transform="translate(52.759 7.537)">
            <path id="Trazado_231311" data-name="Trazado 231311" d="M30,6H45.074V17.305H30Z" transform="translate(-30 -6)" fill="#cf9e76"/>
          </g>
          <g id="Grupo_163182" data-name="Grupo 163182" transform="translate(30.148 7.537)">
            <path id="Trazado_231312" data-name="Trazado 231312" d="M18,6H33.074V17.305H18Z" transform="translate(-18 -6)" fill="#cf9e76"/>
          </g>
          <g id="Grupo_163183" data-name="Grupo 163183" transform="translate(7.537 0)">
            <path id="Trazado_231313" data-name="Trazado 231313" d="M6,9.537A7.535,7.535,0,0,1,13.537,2h90.444a7.535,7.535,0,0,1,7.537,7.537H6Z" transform="translate(-6 -2)" fill="#cf9e76"/>
          </g>
          <g id="Grupo_163184" data-name="Grupo 163184" transform="translate(7.537 7.537)">
            <path id="Trazado_231314" data-name="Trazado 231314" d="M21.074,6V17.305H6V6Z" transform="translate(-6 -6)" fill="#cf9e76"/>
          </g>
          <g id="Grupo_163185" data-name="Grupo 163185" transform="translate(90.444 7.537)">
            <path id="Trazado_231315" data-name="Trazado 231315" d="M50,6h7.537V17.305H50Z" transform="translate(-50 -6)" fill="#b27946"/>
          </g>
          <g id="Grupo_163186" data-name="Grupo 163186" transform="translate(67.833 7.537)">
            <path id="Trazado_231316" data-name="Trazado 231316" d="M38,6h7.537V17.305H38Z" transform="translate(-38 -6)" fill="#b27946"/>
          </g>
          <g id="Grupo_163187" data-name="Grupo 163187" transform="translate(45.222 7.537)">
            <path id="Trazado_231317" data-name="Trazado 231317" d="M26,6h7.537V17.305H26Z" transform="translate(-26 -6)" fill="#b27946"/>
          </g>
          <g id="Grupo_163188" data-name="Grupo 163188" transform="translate(22.611 7.537)">
            <path id="Trazado_231318" data-name="Trazado 231318" d="M14,6h7.537V17.305H14Z" transform="translate(-14 -6)" fill="#b27946"/>
          </g>
          <g id="Grupo_163189" data-name="Grupo 163189" transform="translate(22.611 45.222)">
            <path id="Trazado_231319" data-name="Trazado 231319" d="M14,26H89.37V78.759H14Z" transform="translate(-14 -26)" fill="#e6e9ed"/>
          </g>
          <g id="Grupo_163190" data-name="Grupo 163190" transform="translate(22.611 30.148)">
            <path id="Trazado_231320" data-name="Trazado 231320" d="M14,18H89.37V33.074H14Z" transform="translate(-14 -18)" fill="#ccd1d9"/>
          </g>
          <g id="Grupo_163191" data-name="Grupo 163191" transform="translate(52.759 60.296)">
            <path id="Trazado_231321" data-name="Trazado 231321" d="M30,34H56.379V79.222H30Z" transform="translate(-30 -34)" fill="#d3a06c"/>
          </g>
          <g id="Grupo_163192" data-name="Grupo 163192" transform="translate(60.296 82.907)">
            <path id="Trazado_231322" data-name="Trazado 231322" d="M34,46H45.305v7.537H34Z" transform="translate(-34 -46)" fill="#b27946"/>
          </g>
          <g id="Grupo_163193" data-name="Grupo 163193" transform="translate(60.296 60.296)">
            <path id="Trazado_231323" data-name="Trazado 231323" d="M34,34H45.305v7.537H34Z" transform="translate(-34 -34)" fill="#b27946"/>
          </g>
          <g id="Grupo_163194" data-name="Grupo 163194" transform="translate(45.222 52.759)">
            <path id="Trazado_231324" data-name="Trazado 231324" d="M33.537,60.148V82.759H26V30h7.537V60.148Z" transform="translate(-26 -30)" fill="#ccd1d9"/>
          </g>
          <g id="Grupo_163195" data-name="Grupo 163195" transform="translate(0 90.444)">
            <path id="Trazado_231325" data-name="Trazado 231325" d="M47.222,50V65.074h-.339a5.63,5.63,0,0,0-10.627,0H20.5a5.63,5.63,0,0,0-10.627,0H5.768A3.78,3.78,0,0,1,2,61.305V53.768A3.78,3.78,0,0,1,5.768,50H47.222Z" transform="translate(-2 -50)" fill="#ff826e"/>
          </g>
          <g id="Grupo_163196" data-name="Grupo 163196" transform="translate(7.537 71.601)">
            <path id="Trazado_231326" data-name="Trazado 231326" d="M33.322,42.374l6.595,16.468H6V43.768A3.78,3.78,0,0,1,9.768,40H29.836A3.762,3.762,0,0,1,33.322,42.374Z" transform="translate(-6 -40)" fill="#69d6f4"/>
          </g>
          <g id="Grupo_163197" data-name="Grupo 163197" transform="translate(33.916 101.749)">
            <path id="Trazado_231327" data-name="Trazado 231327" d="M30.966,59.768a5.223,5.223,0,0,1,.339,1.884,5.653,5.653,0,1,1-11.305,0,5.223,5.223,0,0,1,.339-1.884,5.63,5.63,0,0,1,10.627,0Z" transform="translate(-20 -56)" fill="#969faa"/>
          </g>
          <g id="Grupo_163198" data-name="Grupo 163198" transform="translate(7.537 101.749)">
            <path id="Trazado_231328" data-name="Trazado 231328" d="M16.966,59.768a5.223,5.223,0,0,1,.339,1.884A5.653,5.653,0,1,1,6,61.653a5.223,5.223,0,0,1,.339-1.884,5.63,5.63,0,0,1,10.627,0Z" transform="translate(-6 -56)" fill="#969faa"/>
          </g>
        </g>
        <g id="Grupo_163200" data-name="Grupo 163200" transform="translate(1 1)">
          <path id="Trazado_231329" data-name="Trazado 231329" d="M117.823,10.421A9.432,9.432,0,0,0,108.4,1H17.958a9.432,9.432,0,0,0-9.421,9.421v13.19h3.768V72.948a5.645,5.645,0,0,0-3.768,5.306v13.19H6.653A5.66,5.66,0,0,0,1,97.1v7.537a5.66,5.66,0,0,0,5.653,5.653H8.537a7.537,7.537,0,0,0,15.074,0H34.916a7.537,7.537,0,0,0,15.074,0H87.675v-3.768H83.907v-3.768h30.148V23.611h3.768ZM17.958,4.768H108.4a5.645,5.645,0,0,1,5.306,3.768H12.652a5.645,5.645,0,0,1,5.306-3.768ZM95.212,19.842V12.305h3.768v7.537Zm-82.907,0V12.305H23.611v7.537Zm15.074-7.537h3.768v7.537H27.379Zm7.537,0H46.222v7.537H34.916Zm15.074,0h3.768v7.537H49.99Zm7.537,0H68.833v7.537H57.527Zm15.074,0H76.37v7.537H72.6Zm7.537,0H91.444v7.537H80.138ZM12.305,78.254A1.886,1.886,0,0,1,14.19,76.37h20.06A1.875,1.875,0,0,1,36,77.553l5.557,13.891H12.305ZM98.981,46.222h-71.6V34.916h71.6ZM16.074,114.055a3.768,3.768,0,1,1,3.768-3.768A3.772,3.772,0,0,1,16.074,114.055Zm19.89-7.537h-13.4a7.472,7.472,0,0,0-12.979,0H6.653a1.886,1.886,0,0,1-1.884-1.884V97.1a1.886,1.886,0,0,1,1.884-1.884H46.222V103.8a7.417,7.417,0,0,0-10.258,2.721Zm6.489,7.537a3.768,3.768,0,1,1,3.768-3.768A3.772,3.772,0,0,1,42.453,114.055Zm7.537-7.537V57.527h3.768v48.99ZM65.064,65.064H72.6v3.769H65.064ZM76.37,72.6V65.064h3.768V83.907H57.527V65.064H61.3V72.6ZM65.064,87.675H72.6v3.768H65.064Zm-7.537,18.842V87.675H61.3v7.537H76.37V87.675h3.768v18.842ZM83.907,87.675V61.3H57.527V53.759H46.222V91.444h-.609L39.5,76.153A5.626,5.626,0,0,0,34.249,72.6h-6.87V49.99h71.6v48.99H83.907Zm26.379,11.305h-7.537V31.148H23.611V72.6H16.074V23.611h94.212Zm-7.537-79.138V12.305h11.305v7.537Z" transform="translate(-1 -1)"/>
          <path id="Trazado_231330" data-name="Trazado 231330" d="M37,21h3.768v3.768H37Z" transform="translate(30.833 16.685)"/>
          <path id="Trazado_231331" data-name="Trazado 231331" d="M33,21h3.768v3.768H33Z" transform="translate(27.296 16.685)"/>
          <path id="Trazado_231332" data-name="Trazado 231332" d="M29,21h3.768v3.768H29Z" transform="translate(23.759 16.685)"/>
        </g>
      </g>
    </g>
  </g>
</svg>
