<svg xmlns="http://www.w3.org/2000/svg" width="169" height="101.613" viewBox="0 0 169 101.613">
  <g id="Grupo_166222" data-name="Grupo 166222" transform="translate(-180 -398.137)">
    <g id="Grupo_165279" data-name="Grupo 165279" transform="translate(0 -44.057)">
      <path id="Trazado_113613" data-name="Trazado 113613" d="M-22,0H107a40,40,0,0,1,0,80H-22Z" transform="translate(202 453)" fill="rgba(121,210,220,0.2)"/>
      <g id="desarrollador" transform="translate(208 441.193)">
        <g id="Grupo_165277" data-name="Grupo 165277" transform="translate(2.639 2.639)">
          <g id="Grupo_165260" data-name="Grupo 165260" transform="translate(26.223)">
            <path id="Trazado_233265" data-name="Trazado 233265" d="M22.72,10.391A4.914,4.914,0,0,1,26.195,2h13.39a16.927,16.927,0,0,1,14.472,8.195h.131a9.672,9.672,0,0,1,6.867,2.835,9.277,9.277,0,0,1,1.573,2.081,9.7,9.7,0,0,1-.869,10.85L57.334,31.5V23.65a3.278,3.278,0,0,0-3.606-3.261L40.945,21.667V16.75l-14.57,7.293a3.278,3.278,0,0,0-1.819,2.934V31.5H22.917l-3.229-5.376a11.864,11.864,0,0,1,1.786-14.488Z" transform="translate(-18 -2)" fill="#b27946"/>
          </g>
          <g id="Grupo_165261" data-name="Grupo 165261" transform="translate(81.803 10.185)">
            <circle id="Elipse_6951" data-name="Elipse 6951" cx="3.5" cy="3.5" r="3.5" transform="translate(-0.104 -0.487)" fill="#ef7385"/>
          </g>
          <g id="Grupo_165262" data-name="Grupo 165262" transform="translate(10.185 10.185)">
            <circle id="Elipse_6952" data-name="Elipse 6952" cx="3.5" cy="3.5" r="3.5" transform="translate(-0.486 -0.487)" fill="#ef7385"/>
          </g>
          <g id="Grupo_165263" data-name="Grupo 165263" transform="translate(16.389 57.985)">
            <path id="Trazado_233266" data-name="Trazado 233266" d="M70.739,47.345a30.12,30.12,0,0,0-2.622-2.786,29.442,29.442,0,0,0-13.6-7.178l-1.541,9.211-8.195-4.917-8.195,4.917L35.043,37.38A29.6,29.6,0,0,0,12,66.258,11.471,11.471,0,0,0,23.472,77.73h4.917a3.287,3.287,0,0,1-3.278-3.278V51.508a3.287,3.287,0,0,1,3.278-3.278H61.168a3.287,3.287,0,0,1,3.278,3.278V74.452a3.287,3.287,0,0,1-3.278,3.278h4.917A11.485,11.485,0,0,0,77.557,66.258a29.594,29.594,0,0,0-6.818-18.913Z" transform="translate(-12 -37.38)" fill="#ef7385"/>
          </g>
          <g id="Grupo_165264" data-name="Grupo 165264" transform="translate(29.501 91.78)">
            <path id="Trazado_233267" data-name="Trazado 233267" d="M59.334,58v3.278a3.287,3.287,0,0,1-3.278,3.278H23.278A3.287,3.287,0,0,1,20,61.278V58Z" transform="translate(-20 -58)" fill="#aab2bd"/>
          </g>
          <g id="Grupo_165265" data-name="Grupo 165265" transform="translate(29.501 68.835)">
            <path id="Trazado_233268" data-name="Trazado 233268" d="M59.334,63.667v3.278H20V47.278A3.287,3.287,0,0,1,23.278,44H56.056a3.287,3.287,0,0,1,3.278,3.278Z" transform="translate(-20 -44)" fill="#ccd1d9"/>
          </g>
          <g id="Grupo_165266" data-name="Grupo 165266" transform="translate(72.113 39.334)">
            <path id="Trazado_233269" data-name="Trazado 233269" d="M72.223,26V50.584a1.644,1.644,0,0,1-1.639,1.639H47.639A1.623,1.623,0,0,1,46,50.584V26Z" transform="translate(-46 -26)" fill="#e6e9ed"/>
          </g>
          <g id="Grupo_165267" data-name="Grupo 165267" transform="translate(72.113 32.778)">
            <path id="Trazado_233270" data-name="Trazado 233270" d="M72.223,23.639v4.917H46V23.639A1.643,1.643,0,0,1,47.639,22H70.584A1.644,1.644,0,0,1,72.223,23.639Z" transform="translate(-46 -22)" fill="#b4dd7f"/>
          </g>
          <g id="Grupo_165268" data-name="Grupo 165268" transform="translate(65.557 29.501)">
            <path id="Trazado_233271" data-name="Trazado 233271" d="M48.556,23.278a3.066,3.066,0,0,1-.148.967,3.241,3.241,0,0,1-.819,1.344,3.2,3.2,0,0,1-2.311.967H42V20h3.278A3.287,3.287,0,0,1,48.556,23.278Z" transform="translate(-42 -20)" fill="#f0d0b4"/>
          </g>
          <g id="Grupo_165269" data-name="Grupo 165269" transform="translate(32.778 14.75)">
            <path id="Trazado_233272" data-name="Trazado 233272" d="M51.173,14.638,38.389,15.917V11l-14.57,7.293A3.278,3.278,0,0,0,22,21.227V32.306a16.338,16.338,0,0,0,4.8,11.587A16.385,16.385,0,0,0,54.778,32.306V17.9A3.278,3.278,0,0,0,51.173,14.638Z" transform="translate(-22 -11)" fill="#f0d0b4"/>
          </g>
          <g id="Grupo_165270" data-name="Grupo 165270" transform="translate(52.942 26.219)">
            <ellipse id="Elipse_6953" data-name="Elipse 6953" cx="6.5" cy="6" rx="6.5" ry="6" transform="translate(-0.243 0.48)" fill="#69d6f4"/>
          </g>
          <g id="Grupo_165271" data-name="Grupo 165271" transform="translate(39.433 55.936)">
            <path id="Trazado_233273" data-name="Trazado 233273" d="M45.53,38.179,43.99,47.389,35.8,42.473,27.6,47.389,26.06,38.179c.377-.082.738-.164,1.114-.229a3.253,3.253,0,0,0,2.344-1.819h.016l6.261,4.7,6.261-4.7h.016a3.253,3.253,0,0,0,2.344,1.819C44.793,38.015,45.153,38.1,45.53,38.179Z" transform="translate(-26.06 -36.13)" fill="#ed5565"/>
          </g>
          <g id="Grupo_165272" data-name="Grupo 165272" transform="translate(42.891 51.626)">
            <path id="Trazado_233274" data-name="Trazado 233274" d="M40.724,37.81h-.016l-6.261,4.7-6.261-4.7H28.17A2.716,2.716,0,0,0,28.4,37.2l.918-3.7a16.466,16.466,0,0,0,10.26,0l.918,3.7a2.715,2.715,0,0,0,.229.606Z" transform="translate(-28.17 -33.5)" fill="#f0d0b4"/>
          </g>
          <g id="Grupo_165273" data-name="Grupo 165273" transform="translate(45.459 75.389)">
            <ellipse id="Elipse_6954" data-name="Elipse 6954" cx="3.5" cy="3" rx="3.5" ry="3" transform="translate(0.239 0.309)" fill="#69d6f4"/>
          </g>
          <g id="Grupo_165274" data-name="Grupo 165274" transform="translate(32.632 26.219)">
            <ellipse id="Elipse_6955" data-name="Elipse 6955" cx="6.5" cy="6" rx="6.5" ry="6" transform="translate(0.066 0.48)" fill="#69d6f4"/>
          </g>
          <g id="Grupo_165275" data-name="Grupo 165275" transform="translate(26.223 29.501)">
            <path id="Trazado_233275" data-name="Trazado 233275" d="M24.556,23.278v3.278H21.278A3.3,3.3,0,0,1,18,23.278,3.287,3.287,0,0,1,21.278,20h3.278Z" transform="translate(-18 -20)" fill="#f0d0b4"/>
          </g>
          <g id="Grupo_165276" data-name="Grupo 165276" transform="translate(0 32.778)">
            <path id="Trazado_233276" data-name="Trazado 233276" d="M28.223,31.834v6.556H26.977a1.639,1.639,0,0,0-1.147,2.8l.869.869L22.06,46.7l-.869-.869a1.639,1.639,0,0,0-2.8,1.147v1.246H11.834V46.977a1.639,1.639,0,0,0-2.8-1.147l-.869.869L3.524,42.06l.869-.869a1.639,1.639,0,0,0-1.147-2.8H2V31.834H3.246a1.639,1.639,0,0,0,1.147-2.8l-.869-.869,4.638-4.638.869.869a1.639,1.639,0,0,0,2.8-1.147V22h6.556v1.246a1.639,1.639,0,0,0,2.8,1.147l.869-.869L26.7,28.162l-.869.869a1.639,1.639,0,0,0,1.147,2.8Zm-6.556,3.278a6.556,6.556,0,1,0-6.556,6.556A6.554,6.554,0,0,0,21.667,35.111Z" transform="translate(-2 -22)" fill="#fcd770"/>
          </g>
        </g>
        <g id="Grupo_165278" data-name="Grupo 165278" transform="translate(1 1)">
          <path id="Trazado_233277" data-name="Trazado 233277" d="M40.7,29.365l.172-.346-2.932-1.467-.172.347a3.665,3.665,0,0,1-6.556,0l-.172-.346L28.106,29.02l.172.346a6.943,6.943,0,0,0,12.42,0Z" transform="translate(16.319 15.965)"/>
          <circle id="Elipse_6956" data-name="Elipse 6956" cx="1.5" cy="1.5" r="1.5" transform="translate(39.337 33.337)"/>
          <circle id="Elipse_6957" data-name="Elipse 6957" cx="1.5" cy="1.5" r="1.5" transform="translate(59.337 33.337)"/>
          <path id="Trazado_233278" data-name="Trazado 233278" d="M33.917,53.556a1.639,1.639,0,0,1,0-3.278V47a4.917,4.917,0,1,0,4.917,4.917H35.556A1.641,1.641,0,0,1,33.917,53.556Z" transform="translate(16.89 28.39)"/>
          <path id="Trazado_233279" data-name="Trazado 233279" d="M99.335,33.778H89.5V20.366a4.9,4.9,0,1,0-6.254-6.254h-8.88a11.441,11.441,0,0,0-8.526-4.881A18.624,18.624,0,0,0,50.445,1H37.056A6.562,6.562,0,0,0,30.5,7.556a6.469,6.469,0,0,0,.929,3.309l-.254.254a13.557,13.557,0,0,0-2.254,2.993H20.366a4.9,4.9,0,1,0-6.254,6.254V33.778H10.834v2.88L8.8,34.621,1.842,41.575,3.88,43.612H1v9.834H3.881L1.842,55.483,8.8,62.438l2.036-2.04v2.881h9.834V60.4L22.7,62.437l6.956-6.956-2.039-2.036H30.5V43.612h-2.88l2.037-2.037L22.7,34.621l-2.037,2.037v-2.88H17.389V20.366a4.912,4.912,0,0,0,2.976-2.976h7.272A13.38,13.38,0,0,0,29.145,27.6l1.831,3.05a4.909,4.909,0,0,0,1.164,9.679h1.723A18.064,18.064,0,0,0,44.743,55.278l-.572,2.286a1.642,1.642,0,0,1-1.288,1.213A31.27,31.27,0,0,0,17.389,89.5a13.133,13.133,0,0,0,13.118,13.118h42.6A13.133,13.133,0,0,0,86.224,89.5a31.168,31.168,0,0,0-6.983-19.661H99.335a3.281,3.281,0,0,0,3.278-3.278v-29.5A3.281,3.281,0,0,0,99.335,33.778ZM19.412,39.687a3.27,3.27,0,0,0,3.275-.446l2.352,2.352a3.279,3.279,0,0,0,2.185,5.274v3.325a3.279,3.279,0,0,0-2.185,5.274l-2.352,2.352A3.278,3.278,0,0,0,17.414,60H14.087a3.279,3.279,0,0,0-5.274-2.185L6.461,55.465a3.278,3.278,0,0,0-2.183-5.272V46.867a3.279,3.279,0,0,0,2.185-5.274l2.352-2.352a3.277,3.277,0,0,0,5.272-2.185h3.325a3.271,3.271,0,0,0,2,2.63Zm-3.661-22.3a1.639,1.639,0,1,1,1.639-1.639A1.642,1.642,0,0,1,15.75,17.389ZM99.335,40.334H76.391V37.056H99.335ZM60.729,58.777a1.638,1.638,0,0,1-1.287-1.211L58.87,55.28A18.064,18.064,0,0,0,69.751,40.336h1.723a4.861,4.861,0,0,0,1.639-.3v24.02A31.136,31.136,0,0,0,60.729,58.777Zm9.106,34H33.778V74.752a1.641,1.641,0,0,1,1.639-1.639H68.2a1.641,1.641,0,0,1,1.639,1.639ZM57.785,60.844a4.874,4.874,0,0,0,1.881,1.033l-.885,5.313-5.254-3.152Zm-7.618,8.991H46.8l3.37-2.022Zm3.278,0V67.812l3.37,2.022ZM46.89,35.417A4.917,4.917,0,1,1,41.973,30.5,4.923,4.923,0,0,1,46.89,35.417Zm-4.917-8.195A8.11,8.11,0,0,0,37.056,28.9V27.61a1.629,1.629,0,0,1,.906-1.465l12.205-6.1v4.076l14.586-1.459a1.638,1.638,0,0,1,1.8,1.631V28.9a8.11,8.11,0,0,0-4.917-1.682Zm29.5,9.834H69.835V33.778h1.639a1.639,1.639,0,0,1,0,3.278ZM61.64,30.5a4.917,4.917,0,1,1-4.917,4.917A4.923,4.923,0,0,1,61.64,30.5ZM87.863,14.111a1.639,1.639,0,1,1-1.639,1.639A1.642,1.642,0,0,1,87.863,14.111ZM73.9,27.628a11.385,11.385,0,0,0,2.486-7.088,11.23,11.23,0,0,0-.449-3.15h7.306a4.912,4.912,0,0,0,2.976,2.976V33.778H76.391c-.1,0-.2.021-.293.03a4.9,4.9,0,0,0-4.5-3.3ZM33.493,13.436l.254-.254a6.469,6.469,0,0,0,3.309.929h3.278V10.834H37.056a3.278,3.278,0,0,1,0-6.556H50.445a15.317,15.317,0,0,1,13.069,7.4l.6.795h.928a8.066,8.066,0,0,1,6.3,13.106l-1.509,1.888V24.289A4.918,4.918,0,0,0,64.428,19.4l-10.982,1.1V14.737L36.5,23.212a4.889,4.889,0,0,0-2.717,4.4v1.346l-1.822-3.037a10.22,10.22,0,0,1,1.537-12.482ZM30.5,35.417a1.642,1.642,0,0,1,1.639-1.639h1.639v3.278H32.14A1.642,1.642,0,0,1,30.5,35.417Zm7.013,6.859A8.162,8.162,0,0,0,48.486,30.5h6.639a8.119,8.119,0,0,0-1.68,4.917A8.176,8.176,0,0,0,66.1,42.276a14.73,14.73,0,0,1-28.586,0ZM51.807,56.723a18,18,0,0,0,3.935-.446l.421,1.686L51.807,61.23,47.45,57.962l.421-1.685A18,18,0,0,0,51.807,56.723Zm-5.977,4.12,4.26,3.194L44.835,67.19l-.885-5.312a4.9,4.9,0,0,0,1.88-1.034ZM20.667,89.5a27.985,27.985,0,0,1,20.09-26.829l1.193,7.169H35.417A4.923,4.923,0,0,0,30.5,74.752V87.058a6.906,6.906,0,0,0-3.278-.834V89.5A3.644,3.644,0,0,1,30.5,91.528V97.7a4.861,4.861,0,0,0,.3,1.639h-.3a9.85,9.85,0,0,1-9.84-9.84Zm14.75,9.84A1.641,1.641,0,0,1,33.778,97.7V96.058H69.835V97.7A1.641,1.641,0,0,1,68.2,99.335Zm37.689,0h-.3a4.862,4.862,0,0,0,.3-1.639V91.528A3.645,3.645,0,0,1,76.391,89.5V86.224a6.906,6.906,0,0,0-3.278.834V74.752A4.923,4.923,0,0,0,68.2,69.835H61.663l1.195-7.169A27.989,27.989,0,0,1,82.946,89.5a9.85,9.85,0,0,1-9.84,9.84Zm3.284-32.778V43.612H99.335l0,22.945Z" transform="translate(-1 -1)"/>
          <path id="Trazado_233280" data-name="Trazado 233280" d="M49,29h3.278v3.278H49Z" transform="translate(29.668 16.89)"/>
          <path id="Trazado_233281" data-name="Trazado 233281" d="M53,29h9.834v3.278H53Z" transform="translate(32.224 16.89)"/>
          <path id="Trazado_233282" data-name="Trazado 233282" d="M49,33H62.111v3.278H49Z" transform="translate(29.668 19.446)"/>
          <path id="Trazado_233283" data-name="Trazado 233283" d="M49,37H65.389v3.278H49Z" transform="translate(29.668 22.001)"/>
          <path id="Trazado_233284" data-name="Trazado 233284" d="M5,33.195A8.195,8.195,0,1,0,13.195,25,8.2,8.2,0,0,0,5,33.195Zm8.195-4.917a4.917,4.917,0,1,1-4.917,4.917A4.923,4.923,0,0,1,13.195,28.278Z" transform="translate(1.556 14.334)"/>
        </g>
      </g>
    </g>
  </g>
</svg>
