<svg xmlns="http://www.w3.org/2000/svg" width="169" height="103.807" viewBox="0 0 169 103.807">
  <g id="Grupo_166224" data-name="Grupo 166224" transform="translate(-905.566 9487.807)">
    <g id="Grupo_165259" data-name="Grupo 165259" transform="translate(725.566 -10962.807)">
      <path id="Trazado_113613" data-name="Trazado 113613" d="M-22,0H107a40,40,0,0,1,0,80H-22Z" transform="translate(202 1487)" fill="rgba(121,210,220,0.2)"/>
      <g id="escaner-de-codigo-de-barras" transform="translate(203 1472)">
        <path id="Trazado_233250" data-name="Trazado 233250" d="M20,4,37.9,32.636H91.591L86.221,19.213a14.318,14.318,0,0,0-5.928-6.96L69.934,6.04A14.318,14.318,0,0,0,62.568,4Z" transform="translate(13.426 0.79)" fill="#3d4860"/>
        <path id="Trazado_233251" data-name="Trazado 233251" d="M72.178,32.6h-21.5l-2.4-11.2L44.58,4.04a14.331,14.331,0,0,1,5.942,1.969l10.363,6.21a14.345,14.345,0,0,1,5.924,6.962Z" transform="translate(32.838 0.821)" fill="#2e3644"/>
        <path id="Trazado_233252" data-name="Trazado 233252" d="M74.216,80.852h-17.9L42,20H63.477Z" transform="translate(30.801 13.426)" fill="#838eb1"/>
        <path id="Trazado_233253" data-name="Trazado 233253" d="M69.485,80.852H61.019L47.99,20H58.746Z" transform="translate(35.531 13.426)" fill="#617093"/>
        <path id="Trazado_233254" data-name="Trazado 233254" d="M46,64.739v-3.58L53.159,54h17.9l-1.947,5.844a7.159,7.159,0,0,1-6.792,4.9Z" transform="translate(33.96 40.278)" fill="#3d4860"/>
        <path id="Trazado_233255" data-name="Trazado 233255" d="M63.736,54l-1.951,5.835a7.113,7.113,0,0,1-4.313,4.457L55.27,54Z" transform="translate(41.281 40.278)" fill="#2e3644"/>
        <path id="Trazado_233256" data-name="Trazado 233256" d="M34,20l3.58,7.159h3.58L44.739,37.9h7.791L48.318,20Z" transform="translate(24.483 13.426)" fill="#f95555"/>
        <path id="Trazado_233257" data-name="Trazado 233257" d="M28,4,38.739,21.9H60.216l11.2-4.474a3.58,3.58,0,0,0,.514-6.391L63.616,6.04A14.318,14.318,0,0,0,56.25,4Z" transform="translate(19.744 0.79)" fill="#838eb1"/>
        <path id="Trazado_233258" data-name="Trazado 233258" d="M58.325,17.392,48.285,21.4,44.58,4.04a14.331,14.331,0,0,1,5.942,1.969L58.827,11a3.58,3.58,0,0,1-.5,6.389Z" transform="translate(32.838 0.821)" fill="#617093"/>
        <path id="Trazado_233259" data-name="Trazado 233259" d="M93.862,34.43a1.79,1.79,0,0,0,.179-1.67L88.672,19.337A16.208,16.208,0,0,0,82,11.512l-2.049-1.23L71.646,5.3A16.1,16.1,0,0,0,63.357,3H20.79a1.79,1.79,0,0,0-1.518,2.738l17.9,28.636a1.79,1.79,0,0,0,1.518.841H44.74l3.075,6.169a1.79,1.79,0,0,0,1.611.99h2.289l3.173,9.514a1.79,1.79,0,0,0,1.7,1.224h6.373l9.556,40.6-6.454,6.454a1.79,1.79,0,0,0-.526,1.265v3.58a1.79,1.79,0,0,0,1.79,1.79H83.641a8.949,8.949,0,0,0,8.491-6.12l1.945-5.843h-.018a1.749,1.749,0,0,0,.082-.87L83.775,35.216H92.38a1.79,1.79,0,0,0,1.482-.786ZM69.8,8.369l8.31,4.984a1.79,1.79,0,0,1-.258,3.2L66.98,20.9H46.859L38.269,6.58H63.357A12.528,12.528,0,0,1,69.8,8.369ZM57.875,49.534,54.7,40.019a1.79,1.79,0,0,0-1.7-1.224H50.532l-1.79-3.58h10l3.368,14.318Zm25.773,53.693H69.113v-1.049l6.11-6.11H89.9l-1.162,3.488a5.369,5.369,0,0,1-5.1,3.671Zm6.606-10.739H75.9L62.425,35.216H80.144ZM39.681,31.636,24.02,6.58H34.095l10.218,17.03a1.79,1.79,0,0,0,1.534.868H67.324a1.79,1.79,0,0,0,.664-.127l11.2-4.474a5.319,5.319,0,0,0,3.173-3.562,12.548,12.548,0,0,1,2.992,4.363l4.387,10.959Z" transform="translate(12.636 0)"/>
        <path id="Trazado_233260" data-name="Trazado 233260" d="M9.369,36V52.108H4v3.58H9.369V71.8h3.58V55.687h3.58V71.8h3.58V55.687h3.58V71.8h3.58V55.687h3.58V71.8h3.58V55.687h3.58V71.8h3.58V55.687h3.58V71.8h3.58V55.687h5.369v-3.58H48.744V36h-3.58V52.108h-3.58V36h-3.58V52.108h-3.58V36h-3.58V52.108h-3.58V36h-3.58V52.108h-3.58V36h-3.58V52.108h-3.58V36Z" transform="translate(0.79 26.062)"/>
        <path id="Trazado_233261" data-name="Trazado 233261" d="M36.949,39.949V32.79A1.79,1.79,0,0,0,35.159,31H28v3.58h5.369v5.369Z" transform="translate(19.744 22.113)"/>
        <path id="Trazado_233262" data-name="Trazado 233262" d="M33.369,61.369H28v3.58h7.159a1.79,1.79,0,0,0,1.79-1.79V56h-3.58Z" transform="translate(19.744 41.857)"/>
        <path id="Trazado_233263" data-name="Trazado 233263" d="M4.79,64.949h7.159v-3.58H6.58V56H3v7.159A1.79,1.79,0,0,0,4.79,64.949Z" transform="translate(0 41.857)"/>
        <path id="Trazado_233264" data-name="Trazado 233264" d="M6.58,34.58h5.369V31H4.79A1.79,1.79,0,0,0,3,32.79v7.159H6.58Z" transform="translate(0 22.113)"/>
      </g>
    </g>
  </g>
</svg>
