<svg xmlns="http://www.w3.org/2000/svg" width="97" height="97" viewBox="0 0 97 97">
  <g id="Grupo_166219" data-name="Grupo 166219" transform="translate(8985 8528.8)">
    <g id="Fill_Outline" data-name="Fill Outline" transform="translate(-8987 -8530.8)">
      <g id="Color" transform="translate(3.617 3.617)">
        <rect id="Rectángulo_45812" data-name="Rectángulo 45812" width="64" height="93" rx="4" transform="translate(29.383 0.383)" fill="#e9f1f2"/>
        <path id="Trazado_231275" data-name="Trazado 231275" d="M85.667,85.45V90.3A6.467,6.467,0,0,1,79.2,96.767H27.467A6.467,6.467,0,0,1,21,90.3V9.467A6.467,6.467,0,0,1,27.467,3H30.7a3.161,3.161,0,0,0,.954,2.28,3.161,3.161,0,0,0,2.28.954H79.2a3.243,3.243,0,0,1,3.233,3.233v72.75A3.243,3.243,0,0,0,85.667,85.45Z" transform="translate(8.1 -3)" fill="#d0d8da"/>
        <path id="Trazado_231276" data-name="Trazado 231276" d="M25,7H76.733V87.833H25Z" transform="translate(10.567 -0.533)" fill="#ade8f4"/>
        <path id="Trazado_231277" data-name="Trazado 231277" d="M25,7V87.833H76.733V7ZM71.883,58.733A6.467,6.467,0,0,1,65.417,65.2H58.95A22.633,22.633,0,0,1,36.317,42.567V18.317a6.467,6.467,0,0,1,6.467-6.467H65.417a6.467,6.467,0,0,1,6.467,6.467Z" transform="translate(10.567 -0.533)" fill="#48cae4"/>
        <circle id="Elipse_6940" data-name="Elipse 6940" cx="6.5" cy="6.5" r="6.5" transform="translate(43.383 21.383)" fill="#ff7373"/>
        <circle id="Elipse_6941" data-name="Elipse 6941" cx="6.5" cy="6.5" r="6.5" transform="translate(43.383 40.383)" fill="#ff7373"/>
        <g id="Grupo_163175" data-name="Grupo 163175" transform="translate(43.649 21.89)">
          <circle id="Elipse_6942" data-name="Elipse 6942" cx="6.5" cy="6.5" r="6.5" transform="translate(-0.266 37.494)" fill="#ef5350"/>
          <path id="Trazado_231278" data-name="Trazado 231278" d="M33.233,16.54V27.727a6.455,6.455,0,0,1,0-11.187Z" transform="translate(-29.999 -16.54)" fill="#ef5350"/>
          <path id="Trazado_231279" data-name="Trazado 231279" d="M36.273,40.584A6.454,6.454,0,0,1,33.234,28.54v.744a22.383,22.383,0,0,0,3.039,11.3Z" transform="translate(-30 -9.14)" fill="#ef5350"/>
        </g>
        <path id="Trazado_231280" data-name="Trazado 231280" d="M3,19H25.633V41.633H3Z" transform="translate(-3 6.867)" fill="#26c7db"/>
        <path id="Trazado_231281" data-name="Trazado 231281" d="M8,19h6.467v6.467H8Z" transform="translate(0.083 6.867)" fill="#ffea00"/>
        <path id="Trazado_231282" data-name="Trazado 231282" d="M25.633,36.783v4.85H3V19H7.85v4.85A12.933,12.933,0,0,0,20.783,36.783Z" transform="translate(-3 6.867)" fill="#1e99a8"/>
        <path id="Trazado_231283" data-name="Trazado 231283" d="M3,33H25.633V55.633H3Z" transform="translate(-3 15.5)" fill="#26c7db"/>
        <path id="Trazado_231284" data-name="Trazado 231284" d="M8,33h6.467v6.467H8Z" transform="translate(0.083 15.5)" fill="#ffea00"/>
        <path id="Trazado_231285" data-name="Trazado 231285" d="M25.633,50.783v4.85H3V33H7.85v4.85A12.933,12.933,0,0,0,20.783,50.783Z" transform="translate(-3 15.5)" fill="#1e99a8"/>
        <path id="Trazado_231286" data-name="Trazado 231286" d="M3,47H25.633V69.633H3Z" transform="translate(-3 24.133)" fill="#26c7db"/>
        <path id="Trazado_231287" data-name="Trazado 231287" d="M8,47h6.467v6.467H8Z" transform="translate(0.083 24.133)" fill="#ffea00"/>
        <path id="Trazado_231288" data-name="Trazado 231288" d="M25.633,64.783v4.85H3V47H7.85v4.85A12.933,12.933,0,0,0,20.783,64.783Z" transform="translate(-3 24.133)" fill="#1e99a8"/>
        <path id="Trazado_231289" data-name="Trazado 231289" d="M17,33H39.633V55.633H17Z" transform="translate(5.633 15.5)" fill="#26c7db"/>
        <path id="Trazado_231290" data-name="Trazado 231290" d="M22,33h6.467v6.467H22Z" transform="translate(8.717 15.5)" fill="#ffea00"/>
        <path id="Trazado_231291" data-name="Trazado 231291" d="M39.633,50.783v4.85H17V33h4.85v4.85A12.933,12.933,0,0,0,34.783,50.783Z" transform="translate(5.633 15.5)" fill="#1e99a8"/>
        <path id="Trazado_231292" data-name="Trazado 231292" d="M17,47H39.633V69.633H17Z" transform="translate(5.633 24.133)" fill="#26c7db"/>
        <path id="Trazado_231293" data-name="Trazado 231293" d="M22,47h6.467v6.467H22Z" transform="translate(8.717 24.133)" fill="#ffea00"/>
        <path id="Trazado_231294" data-name="Trazado 231294" d="M39.633,64.783v4.85H17V47h4.85v4.85A12.933,12.933,0,0,0,34.783,64.783Z" transform="translate(5.633 24.133)" fill="#1e99a8"/>
        <path id="Trazado_231295" data-name="Trazado 231295" d="M31,47H53.633V69.633H31Z" transform="translate(14.267 24.133)" fill="#26c7db"/>
        <path id="Trazado_231296" data-name="Trazado 231296" d="M36,47h6.467v6.467H36Z" transform="translate(17.35 24.133)" fill="#ffea00"/>
        <path id="Trazado_231297" data-name="Trazado 231297" d="M53.633,64.783v4.85H31V47h4.85v4.85A12.933,12.933,0,0,0,48.783,64.783Z" transform="translate(14.267 24.133)" fill="#1e99a8"/>
      </g>
      <g id="Outline_copy" data-name="Outline copy" transform="translate(2 2)">
        <path id="Trazado_231298" data-name="Trazado 231298" d="M97.383,47.267A1.617,1.617,0,0,0,99,45.65V10.083A8.093,8.093,0,0,0,90.917,2H39.183A8.093,8.093,0,0,0,31.1,10.083V50.5H27.867V29.483a1.617,1.617,0,0,0-1.617-1.617H3.617A1.617,1.617,0,0,0,2,29.483V60.2a1.617,1.617,0,0,0,3.233,0V53.733h4.85v4.85A1.617,1.617,0,0,0,11.7,60.2h6.467a1.617,1.617,0,0,0,1.617-1.617v-4.85h4.85v14.55a1.617,1.617,0,0,0,3.233,0V53.733h4.85v4.85A1.617,1.617,0,0,0,34.333,60.2H40.8a1.617,1.617,0,0,0,1.617-1.617v-4.85h4.85v19.4H5.233V66.667a1.617,1.617,0,1,0-3.233,0V97.383A1.617,1.617,0,0,0,3.617,99H34.333a1.617,1.617,0,0,0,0-3.233H27.867v-19.4h4.85v4.85a1.617,1.617,0,0,0,1.617,1.617H40.8a1.617,1.617,0,0,0,1.617-1.617v-4.85h4.85v19.4H40.8A1.617,1.617,0,0,0,40.8,99H90.917A8.093,8.093,0,0,0,99,90.917v-38.8a1.617,1.617,0,0,0-3.233,0v38.8a4.85,4.85,0,0,1-4.85,4.85H73.133V92.533H90.917a1.617,1.617,0,0,0,1.617-1.617v-67.9a1.617,1.617,0,0,0-3.233,0V89.3H73.133V76.367h9.7a1.617,1.617,0,1,0,0-3.233H61.123a7.962,7.962,0,0,0,.694-3.233,8.048,8.048,0,0,0-.6-3.043l3.119-2.079a1.617,1.617,0,0,0-1.795-2.69l-3.115,2.077a8.053,8.053,0,0,0-5.687-2.349,7.962,7.962,0,0,0-3.233.694V57.89a7.962,7.962,0,0,0,3.233.694,8.062,8.062,0,0,0,7.479-11.126l3.119-2.079a1.617,1.617,0,0,0-1.795-2.69l-3.115,2.077A8,8,0,0,0,48.4,44.476l-.162-.12a1.617,1.617,0,0,0-1.94,2.587l.152.115a7.988,7.988,0,0,0-.8,3.442H34.333V10.083a4.85,4.85,0,0,1,4.85-4.85H90.917a4.85,4.85,0,0,1,4.85,4.85V45.65a1.617,1.617,0,0,0,1.617,1.617ZM16.55,76.367V79.6H13.317V76.367Zm-11.317,0h4.85v4.85A1.617,1.617,0,0,0,11.7,82.833h6.467a1.617,1.617,0,0,0,1.617-1.617v-4.85h4.85v19.4H5.233ZM39.183,79.6H35.95V76.367h3.233ZM69.9,76.367v19.4H50.5v-19.4h4.85v4.85a1.617,1.617,0,0,0,1.617,1.617h6.467a1.617,1.617,0,0,0,1.617-1.617v-4.85ZM61.817,79.6H58.583V76.367h3.233Zm-3.233-9.7a4.729,4.729,0,0,1-1.3,3.233H50.5V69.5l2.263,1.7a1.617,1.617,0,0,0,1.867.052l3.791-2.527A4.748,4.748,0,0,1,58.583,69.9Zm-1.958-3.87-2.837,1.89-2.713-2.034a4.7,4.7,0,0,1,2.658-.836,4.8,4.8,0,0,1,2.892.98ZM53.733,45.65a4.8,4.8,0,0,1,2.892.98l-2.837,1.89L51.04,46.466A4.819,4.819,0,0,1,53.733,45.65Zm-4.609,3.414,3.639,2.729a1.617,1.617,0,0,0,1.867.052l3.791-2.527a4.748,4.748,0,0,1,.162,1.182,4.85,4.85,0,0,1-4.85,4.85,4.729,4.729,0,0,1-3.233-1.3V52.117A1.617,1.617,0,0,0,48.883,50.5,4.8,4.8,0,0,1,49.124,49.064ZM16.55,31.1v3.233H13.317V31.1Zm-11.317,0h4.85v4.85A1.617,1.617,0,0,0,11.7,37.567h6.467a1.617,1.617,0,0,0,1.617-1.617V31.1h4.85V50.5H5.233ZM16.55,56.967H13.317V53.733H16.55Zm22.633-3.233v3.233H35.95V53.733Z" transform="translate(-2 -2)" fill="#323232"/>
        <path id="Trazado_231299" data-name="Trazado 231299" d="M77.35,15.7a1.617,1.617,0,0,0,1.617-1.617V7.617A1.617,1.617,0,0,0,77.35,6H25.617A1.617,1.617,0,0,0,24,7.617V43.183a1.617,1.617,0,0,0,3.233,0V9.233h48.5v4.85A1.617,1.617,0,0,0,77.35,15.7Z" transform="translate(11.567 0.467)" fill="#323232"/>
        <path id="Trazado_231300" data-name="Trazado 231300" d="M48.129,15.72a1.617,1.617,0,0,0-2.242-.448l-3.115,2.077a8,8,0,0,0-11.024-.289l-.162-.12a1.617,1.617,0,0,0-1.94,2.587l.152.115a7.988,7.988,0,0,0-.8,3.442,8.083,8.083,0,1,0,15.562-3.043l3.119-2.079a1.617,1.617,0,0,0,.448-2.242ZM37.084,18.234a4.8,4.8,0,0,1,2.892.98L37.139,21.1,34.391,19.05a4.819,4.819,0,0,1,2.693-.816Zm4.85,4.85a4.85,4.85,0,1,1-9.7,0,4.8,4.8,0,0,1,.241-1.436l3.639,2.729a1.617,1.617,0,0,0,1.867.052L41.772,21.9a4.748,4.748,0,0,1,.162,1.182Z" transform="translate(14.649 6.016)" fill="#323232"/>
        <path id="Trazado_231301" data-name="Trazado 231301" d="M59.4,22H41.617a1.617,1.617,0,1,0,0,3.233H59.4A1.617,1.617,0,1,0,59.4,22Z" transform="translate(21.433 10.333)" fill="#323232"/>
        <path id="Trazado_231302" data-name="Trazado 231302" d="M61.017,35.617A1.617,1.617,0,0,0,59.4,34H41.617a1.617,1.617,0,1,0,0,3.233H59.4A1.617,1.617,0,0,0,61.017,35.617Z" transform="translate(21.433 17.733)" fill="#323232"/>
        <path id="Trazado_231303" data-name="Trazado 231303" d="M58.783,18H42.617a1.617,1.617,0,1,0,0,3.233H58.783a1.617,1.617,0,1,0,0-3.233Z" transform="translate(22.05 7.867)" fill="#323232"/>
        <path id="Trazado_231304" data-name="Trazado 231304" d="M58.167,30H43.617a1.617,1.617,0,1,0,0,3.233h14.55a1.617,1.617,0,1,0,0-3.233Z" transform="translate(22.667 15.267)" fill="#323232"/>
        <path id="Trazado_231305" data-name="Trazado 231305" d="M43.617,42a1.617,1.617,0,1,0,0,3.233H56.55a1.617,1.617,0,1,0,0-3.233Z" transform="translate(22.667 22.667)" fill="#323232"/>
        <path id="Trazado_231306" data-name="Trazado 231306" d="M58.4,13.233A1.617,1.617,0,1,0,58.4,10H40.617a1.617,1.617,0,0,0,0,3.233Z" transform="translate(20.817 2.933)" fill="#323232"/>
        <path id="Trazado_231307" data-name="Trazado 231307" d="M38.467,13.233a1.617,1.617,0,0,0,0-3.233h-4.85a1.617,1.617,0,0,0,0,3.233Z" transform="translate(16.5 2.933)" fill="#323232"/>
      </g>
    </g>
  </g>
</svg>
