<svg xmlns="http://www.w3.org/2000/svg" width="169" height="112.842" viewBox="0 0 169 112.842">
  <g id="Grupo_166220" data-name="Grupo 166220" transform="translate(8874 9932)">
    <g id="Grupo_163081" data-name="Grupo 163081" transform="translate(-9054 -11700)">
      <path id="Trazado_113613" data-name="Trazado 113613" d="M-22,0H107a40,40,0,0,1,0,80H-22Z" transform="translate(202 1785)" fill="rgba(121,210,220,0.2)"/>
      <g id="office-work_from_home-work-file-data" data-name="office-work from home-work-file-data" transform="translate(205.317 1766)">
        <path id="Trazado_230842" data-name="Trazado 230842" d="M15.881,23.629V3.067l-.292.29L14,25.509a1.881,1.881,0,0,0,1.881-1.881Z" transform="translate(10.568 0.94)" fill="#9bc9ff"/>
        <path id="Trazado_230843" data-name="Trazado 230843" d="M25.568,3V23.688a1.881,1.881,0,0,1-1.881,1.881H3V112.08H85.75V3Z" transform="translate(0.881 0.881)" fill="#ffc477"/>
        <path id="Trazado_230844" data-name="Trazado 230844" d="M13,90.944H76.944V27A63.944,63.944,0,0,1,13,90.944Z" transform="translate(9.688 22.017)" fill="#ffb655"/>
        <path id="Trazado_230845" data-name="Trazado 230845" d="M36.212,57.784a7.472,7.472,0,0,1-7.786.188,3.761,3.761,0,0,1-1.392-5.134L38.66,32.6A13.165,13.165,0,0,1,50.074,26H72.9a11.285,11.285,0,0,1,8.671,4.061l2.632,3.162a11.284,11.284,0,0,0,8.67,4.06h.357v26.33H77.98a15.036,15.036,0,0,1-6.731-1.59l-1.168-.582a15.034,15.034,0,0,0-6.729-1.589H40.575a5.593,5.593,0,0,1-3.724-1.429,1.516,1.516,0,0,1-.263-.226,3.93,3.93,0,0,1-.376-.414,5.683,5.683,0,0,1-1.279-3.517,5.947,5.947,0,0,1,5.988-5.7H61.262a3.784,3.784,0,0,0,3.746-4.094,3.9,3.9,0,0,0-3.957-3.429H59.908" transform="translate(21.607 21.137)" fill="#ffbcab"/>
        <path id="Trazado_230846" data-name="Trazado 230846" d="M40.921,48.568h1.61l7.448-12.9L55.564,26h-5.49A13.165,13.165,0,0,0,38.66,32.6L27.034,52.837a3.761,3.761,0,0,0,1.392,5.134,7.472,7.472,0,0,0,7.786-.188,5.683,5.683,0,0,1-1.279-3.517,5.947,5.947,0,0,1,5.988-5.7Z" transform="translate(21.607 21.137)" fill="#ffa791"/>
        <path id="Trazado_230847" data-name="Trazado 230847" d="M29.6,62.4,42.013,52.192l4.344-7.523H37.875a5.593,5.593,0,0,1-3.724-1.429l-1.918,3.31Z" transform="translate(24.307 36.32)" fill="#005ece"/>
        <path id="Trazado_230848" data-name="Trazado 230848" d="M69.193,21.2l-9.78-5.642L48.073,35.194l-5.586,9.667-7.448,12.9H48.073l4.344-7.523,8.689-15.046Z" transform="translate(29.098 11.942)" fill="#005ece"/>
        <path id="Trazado_230849" data-name="Trazado 230849" d="M47.668,41.523a3.784,3.784,0,0,0,3.746-4.094A3.9,3.9,0,0,0,47.458,34H46.314L41.97,41.523Z" transform="translate(35.201 28.182)" fill="#ffb19d"/>
        <path id="Trazado_230850" data-name="Trazado 230850" d="M52.7,12.548,48,20.691l9.78,5.642,4.7-8.143a5.645,5.645,0,1,0-9.78-5.642Z" transform="translate(40.512 6.801)" fill="#d80027"/>
        <path id="Trazado_230851" data-name="Trazado 230851" d="M9,19H24.046V34.046H9Z" transform="translate(6.165 14.972)" fill="#5eac24"/>
        <path id="Trazado_230852" data-name="Trazado 230852" d="M9,33H24.046V48.046H9Z" transform="translate(6.165 27.302)" fill="#5eac24"/>
        <path id="Trazado_230853" data-name="Trazado 230853" d="M9,47H24.046V62.046H9Z" transform="translate(6.165 39.631)" fill="#5eac24"/>
        <path id="Trazado_230854" data-name="Trazado 230854" d="M25.568,3V23.688a1.881,1.881,0,0,1-1.881,1.881H3Z" transform="translate(0.881 0.881)" fill="#ff5023"/>
        <g id="Grupo_163080" data-name="Grupo 163080" transform="translate(2 2)">
          <path id="Trazado_230855" data-name="Trazado 230855" d="M73.786,43.092a9.383,9.383,0,0,1,7.222,3.385l2.633,3.16a13.165,13.165,0,0,0,10.118,4.739,1.881,1.881,0,0,0,0-3.761,9.383,9.383,0,0,1-7.222-3.385L83.9,44.069A13.165,13.165,0,0,0,73.786,39.33H72.752L79.2,28.159a.07.07,0,0,1,.019-.056l4.664-8.087a7.524,7.524,0,1,0-13.033-7.523l-4.7,8.143v.019L55.356,39.33h-4.4A15.141,15.141,0,0,0,37.9,46.872L26.28,67.108a5.554,5.554,0,0,0-.545,4.269,5.653,5.653,0,0,0,2.633,3.442,9.418,9.418,0,0,0,4.664,1.241,8.085,8.085,0,0,0,1.166-.075L34.179,76a1.853,1.853,0,0,0-.226.639L31.32,92.5a1.881,1.881,0,0,0,.922,1.937,1.849,1.849,0,0,0,.94.244,1.928,1.928,0,0,0,1.2-.433L46.8,84.034a1.88,1.88,0,0,0,.433-.508l3.8-6.582h13.2a13.283,13.283,0,0,1,5.887,1.392l1.166.583a17.133,17.133,0,0,0,7.579,1.787H92.236a1.881,1.881,0,0,0,0-3.761H78.864a13.283,13.283,0,0,1-5.887-1.392l-1.166-.583a17.133,17.133,0,0,0-7.579-1.787H41.457a3.735,3.735,0,0,1-2.483-.959,4.277,4.277,0,0,1-.414-.414,3.775,3.775,0,0,1-.865-2.351,3.5,3.5,0,0,1,1.091-2.5,4.237,4.237,0,0,1,3.009-1.3H62.145a5.6,5.6,0,0,0,1.711-10.946l6.714-11.623Zm.339-28.718A3.652,3.652,0,0,1,76.4,12.606a3.761,3.761,0,0,1,4.232,5.529l-3.761,6.507-6.507-3.761ZM38.392,76.248a7.455,7.455,0,0,0,3.066.7h5.228l-2.558,4.4-8.275,6.808,1.768-10.569ZM41.8,61.9a8.13,8.13,0,0,0-5.7,2.407,7.175,7.175,0,0,0-1.655,7.786,5.473,5.473,0,0,1-4.194-.545,1.813,1.813,0,0,1-.884-1.147,1.777,1.777,0,0,1,.188-1.411L41.175,48.752a11.3,11.3,0,0,1,9.78-5.661h2.238l-3.949,6.827c0,.019,0,.019-.019.019L42.323,61.9Zm22.23-2.05a1.852,1.852,0,0,1-.583,1.5,1.745,1.745,0,0,1-1.3.545H59.7l2.182-3.761h.056a2.054,2.054,0,0,1,2.088,1.711Zm-8.67,2.05H46.667L68.483,24.153l6.507,3.761Z" transform="translate(18.725 3.926)" fill="#231f20"/>
          <path id="Trazado_230856" data-name="Trazado 230856" d="M86.631,22.688a1.881,1.881,0,0,0,1.881-1.881V3.881A1.881,1.881,0,0,0,86.631,2H26.581a1.862,1.862,0,0,0-1.335.545L2.545,25.17A1.943,1.943,0,0,0,2,26.505v86.455a1.881,1.881,0,0,0,1.881,1.881h82.75a1.881,1.881,0,0,0,1.881-1.881V88.512a1.881,1.881,0,0,0-3.761,0V111.08H5.761V28.33H24.568a3.773,3.773,0,0,0,3.761-3.761V5.761H84.75V20.807A1.881,1.881,0,0,0,86.631,22.688ZM24.568,24.568H8.488L24.568,8.545Z" transform="translate(-2 -2)" fill="#231f20"/>
          <path id="Trazado_230857" data-name="Trazado 230857" d="M63.256,8H21.881a1.881,1.881,0,0,0,0,3.761H63.256a1.881,1.881,0,0,0,0-3.761Z" transform="translate(13.852 3.284)" fill="#231f20"/>
          <path id="Trazado_230858" data-name="Trazado 230858" d="M65.137,13.881A1.881,1.881,0,0,0,63.256,12H21.881a1.881,1.881,0,0,0,0,3.761H63.256A1.881,1.881,0,0,0,65.137,13.881Z" transform="translate(13.852 6.807)" fill="#231f20"/>
          <path id="Trazado_230859" data-name="Trazado 230859" d="M59.614,21.881A1.881,1.881,0,0,0,57.733,20H23.881a1.881,1.881,0,0,0,0,3.761H57.733A1.881,1.881,0,0,0,59.614,21.881Z" transform="translate(15.614 13.853)" fill="#231f20"/>
          <path id="Trazado_230860" data-name="Trazado 230860" d="M44.568,25.881A1.881,1.881,0,0,0,42.688,24H23.881a1.881,1.881,0,0,0,0,3.761H42.688A1.881,1.881,0,0,0,44.568,25.881Z" transform="translate(15.614 17.375)" fill="#231f20"/>
          <path id="Trazado_230861" data-name="Trazado 230861" d="M31.4,35.881A1.881,1.881,0,0,0,29.523,34H23.881a1.881,1.881,0,0,0,0,3.761h5.642A1.881,1.881,0,0,0,31.4,35.881Z" transform="translate(15.614 26.182)" fill="#231f20"/>
          <path id="Trazado_230862" data-name="Trazado 230862" d="M25.761,38H23.881a1.881,1.881,0,1,0,0,3.761h1.881a1.881,1.881,0,1,0,0-3.761Z" transform="translate(15.614 29.705)" fill="#231f20"/>
          <path id="Trazado_230863" data-name="Trazado 230863" d="M33.284,49.881A1.881,1.881,0,0,0,31.4,48H23.881a1.881,1.881,0,0,0,0,3.761H31.4A1.881,1.881,0,0,0,33.284,49.881Z" transform="translate(15.614 38.512)" fill="#231f20"/>
          <path id="Trazado_230864" data-name="Trazado 230864" d="M23.881,52a1.881,1.881,0,1,0,0,3.761h5.642a1.881,1.881,0,1,0,0-3.761Z" transform="translate(15.614 42.035)" fill="#231f20"/>
          <path id="Trazado_230865" data-name="Trazado 230865" d="M34,53.881a1.881,1.881,0,0,0,1.881,1.881H50.926a1.881,1.881,0,1,0,0-3.761H35.881A1.881,1.881,0,0,0,34,53.881Z" transform="translate(26.182 42.035)" fill="#231f20"/>
          <path id="Trazado_230866" data-name="Trazado 230866" d="M47.4,51.761A1.881,1.881,0,1,0,47.4,48H39.881a1.881,1.881,0,0,0,0,3.761Z" transform="translate(29.705 38.512)" fill="#231f20"/>
          <path id="Trazado_230867" data-name="Trazado 230867" d="M33.134,16.894a1.881,1.881,0,0,0-2.659,0l-3.8,3.8a1.881,1.881,0,0,0-1.751-1.234H9.881A1.881,1.881,0,0,0,8,21.34V36.385a1.881,1.881,0,0,0,1.881,1.881H24.926a1.881,1.881,0,0,0,1.881-1.881V25.88l6.327-6.327A1.881,1.881,0,0,0,33.134,16.894ZM23.046,23.221v1.1L17.4,29.965l-3.989-3.991a1.845,1.845,0,0,0-1.653-.487V23.221Zm0,11.284H11.761V29.641l4.312,4.312a1.881,1.881,0,0,0,2.659,0l4.312-4.312Z" transform="translate(3.284 10.632)" fill="#231f20"/>
          <path id="Trazado_230868" data-name="Trazado 230868" d="M33.126,30.9a1.881,1.881,0,0,0-2.652,0l-3.8,3.8a1.849,1.849,0,0,0-1.749-1.241H9.881A1.881,1.881,0,0,0,8,35.335V50.38a1.881,1.881,0,0,0,1.881,1.881H24.926a1.881,1.881,0,0,0,1.881-1.881V39.867l6.319-6.319A1.881,1.881,0,0,0,33.126,30.9ZM23.046,48.5H11.761V43.628l4.307,4.326a1.907,1.907,0,0,0,2.671,0l4.307-4.326Zm0-10.175L17.4,43.967l-3.987-4.006a1.881,1.881,0,0,0-1.655-.489V37.215H23.046Z" transform="translate(3.284 22.967)" fill="#231f20"/>
          <path id="Trazado_230869" data-name="Trazado 230869" d="M33.126,44.9a1.881,1.881,0,0,0-2.652,0l-3.8,3.8a1.849,1.849,0,0,0-1.749-1.241H9.881A1.881,1.881,0,0,0,8,49.335V64.38a1.881,1.881,0,0,0,1.881,1.881H24.926a1.881,1.881,0,0,0,1.881-1.881V53.867l6.319-6.319a1.881,1.881,0,0,0,0-2.652ZM23.046,62.5H11.761V57.628l4.307,4.326a1.907,1.907,0,0,0,2.671,0l4.307-4.326Zm0-10.175L17.4,57.967l-3.987-4.006a1.881,1.881,0,0,0-1.655-.489V51.215H23.046Z" transform="translate(3.284 35.297)" fill="#231f20"/>
        </g>
      </g>
    </g>
  </g>
</svg>
