<svg xmlns="http://www.w3.org/2000/svg" width="169" height="105.962" viewBox="0 0 169 105.962">
  <g id="Grupo_166220" data-name="Grupo 166220" transform="translate(8854 10755.962)">
    <g id="Grupo_163079" data-name="Grupo 163079" transform="translate(-9034 -11696.521)">
      <path id="Trazado_113613" data-name="Trazado 113613" d="M-22,0H107a40,40,0,0,1,0,80H-22Z" transform="translate(202 960.5)" fill="rgba(121,210,220,0.2)"/>
      <g id="Layer_2" transform="translate(197.526 919.146)">
        <g id="Grupo_163078" data-name="Grupo 163078" transform="translate(2.16 21.413)">
          <g id="Grupo_163074" data-name="Grupo 163074" transform="translate(1.241 1.243)">
            <path id="Trazado_230809" data-name="Trazado 230809" d="M105.483,173.6h8.357v23.125h-8.357Z" transform="translate(-55.366 -99.197)" fill="#72c2e9"/>
            <path id="Trazado_230810" data-name="Trazado 230810" d="M143.1,173.6v23.125l-8.357.005V173.6Z" transform="translate(-70.082 -99.197)" fill="#72c2e9"/>
            <path id="Trazado_230811" data-name="Trazado 230811" d="M107.268,220.124v5.942H92.416a5.941,5.941,0,0,1,5.942-5.942Z" transform="translate(-48.794 -122.594)" fill="#fc5d3d"/>
            <path id="Trazado_230812" data-name="Trazado 230812" d="M149.079,226.066H134.743v-5.937l8.357-.005h.037A5.941,5.941,0,0,1,149.079,226.066Z" transform="translate(-70.082 -122.594)" fill="#fc5d3d"/>
            <path id="Trazado_230813" data-name="Trazado 230813" d="M105.483,173.6h8.357v7.134h-8.357Z" transform="translate(-55.366 -99.197)" fill="#4ba5c8"/>
            <path id="Trazado_230814" data-name="Trazado 230814" d="M134.743,173.6H143.1v7.134h-8.357Z" transform="translate(-70.082 -99.197)" fill="#4ba5c8"/>
            <path id="Trazado_230815" data-name="Trazado 230815" d="M123.545,49.849h-.761a5.419,5.419,0,0,1-5.419-5.419V37.669h11.6V44.43A5.419,5.419,0,0,1,123.545,49.849Z" transform="translate(-61.342 -30.831)" fill="#ffb69f"/>
            <path id="Trazado_230816" data-name="Trazado 230816" d="M132.686,23.913H121.839a4.473,4.473,0,0,0-4.474,4.474v2.365h11.841a3.479,3.479,0,0,0,3.479-3.479Z" transform="translate(-61.342 -23.913)" fill="#aeaeae"/>
            <path id="Trazado_230817" data-name="Trazado 230817" d="M128.867,88.886H101V72.114a9.941,9.941,0,0,1,9.941-9.941h7.989a9.941,9.941,0,0,1,9.941,9.941Z" transform="translate(-53.109 -43.155)" fill="#fc5d3d"/>
            <path id="Trazado_230818" data-name="Trazado 230818" d="M40.071,180.462h7.857v25.657H40.071Z" transform="translate(-22.468 -102.647)" fill="#efefef"/>
            <path id="Trazado_230819" data-name="Trazado 230819" d="M200.122,180.462h7.857v25.657h-7.857Z" transform="translate(-102.963 -102.647)" fill="#efefef"/>
            <g id="Grupo_163073" data-name="Grupo 163073" transform="translate(0 45.731)">
              <path id="Trazado_230820" data-name="Trazado 230820" d="M40.071,180.462h7.857v3.724H40.071Z" transform="translate(-22.468 -148.377)" fill="#aeaeae"/>
              <path id="Trazado_230821" data-name="Trazado 230821" d="M200.122,180.462h7.857v3.724h-7.857Z" transform="translate(-102.963 -148.377)" fill="#aeaeae"/>
              <path id="Trazado_230822" data-name="Trazado 230822" d="M111.234,148H20.7a16.042,16.042,0,1,1,0-32.085h90.535a16.042,16.042,0,1,1,0,32.085Z" transform="translate(-4.657 -115.914)" fill="#aeaeae"/>
            </g>
            <path id="Trazado_230823" data-name="Trazado 230823" d="M28.235,148.087a8.595,8.595,0,1,1,0-17.19h90.535a8.595,8.595,0,1,1,0,17.19Z" transform="translate(-12.192 -77.719)" fill="#4a4842"/>
            <circle id="Elipse_6929" data-name="Elipse 6929" cx="8.595" cy="8.595" r="8.595" transform="translate(97.982 53.178)" fill="#efefef"/>
            <circle id="Elipse_6930" data-name="Elipse 6930" cx="3.275" cy="3.275" r="3.275" transform="translate(103.302 58.498)" fill="#f0c020"/>
            <circle id="Elipse_6931" data-name="Elipse 6931" cx="8.595" cy="8.595" r="8.595" transform="translate(67.804 53.178)" fill="#efefef"/>
            <circle id="Elipse_6932" data-name="Elipse 6932" cx="3.275" cy="3.275" r="3.275" transform="translate(73.123 58.498)" fill="#f0c020"/>
            <circle id="Elipse_6933" data-name="Elipse 6933" cx="8.595" cy="8.595" r="8.595" transform="translate(37.626 53.178)" fill="#efefef"/>
            <circle id="Elipse_6934" data-name="Elipse 6934" cx="3.275" cy="3.275" r="3.275" transform="translate(42.946 58.498)" fill="#f0c020"/>
            <circle id="Elipse_6935" data-name="Elipse 6935" cx="8.595" cy="8.595" r="8.595" transform="translate(7.448 53.178)" fill="#efefef"/>
            <circle id="Elipse_6936" data-name="Elipse 6936" cx="3.275" cy="3.275" r="3.275" transform="translate(12.767 58.498)" fill="#f0c020"/>
            <path id="Trazado_230824" data-name="Trazado 230824" d="M156.669,43.194c-.625-2.7-1.038-4.477-4.693-5.684a1.331,1.331,0,0,1,0-2.526c2.121-.7,3.653-1.207,4.693-5.684a1.331,1.331,0,0,1,2.591,0c1.064,4.584,2.66,5.013,4.693,5.685a1.331,1.331,0,0,1,0,2.525c-2.121.7-3.654,1.208-4.693,5.684A1.33,1.33,0,0,1,156.669,43.194Z" transform="translate(-78.291 -26.107)"/>
            <path id="Trazado_230825" data-name="Trazado 230825" d="M164.847,41.614a7.056,7.056,0,0,0-2.3,2.6,7.382,7.382,0,0,0-2.431-2.58,7.069,7.069,0,0,0,2.4-2.713A7.223,7.223,0,0,0,164.847,41.614Z" transform="translate(-82.844 -31.462)" fill="#f0c020"/>
            <path id="Trazado_230826" data-name="Trazado 230826" d="M156.669,43.194c-.625-2.7-1.038-4.477-4.693-5.684a1.331,1.331,0,0,1,0-2.526c2.121-.7,3.653-1.207,4.693-5.684a1.331,1.331,0,0,1,2.591,0c1.064,4.584,2.66,5.013,4.693,5.685a1.331,1.331,0,0,1,0,2.525c-2.121.7-3.654,1.208-4.693,5.684A1.33,1.33,0,0,1,156.669,43.194Z" transform="translate(-78.291 -26.107)"/>
            <path id="Trazado_230827" data-name="Trazado 230827" d="M164.847,41.614a7.056,7.056,0,0,0-2.3,2.6,7.382,7.382,0,0,0-2.431-2.58,7.069,7.069,0,0,0,2.4-2.713A7.223,7.223,0,0,0,164.847,41.614Z" transform="translate(-82.844 -31.462)" fill="#f0c020"/>
            <path id="Trazado_230828" data-name="Trazado 230828" d="M194.511,74.321V93.869H170.02V74.321a2.24,2.24,0,0,1,2.24-2.24h20.01A2.24,2.24,0,0,1,194.511,74.321Z" transform="translate(-87.824 -48.138)" fill="#f0c020"/>
            <path id="Trazado_230829" data-name="Trazado 230829" d="M194.612,81.908l-3.7-3.739-3.7,3.739V72.082h7.405Z" transform="translate(-96.468 -48.139)" fill="#fc5d3d"/>
            <path id="Trazado_230830" data-name="Trazado 230830" d="M61.2,74.321V93.869H36.709V74.321a2.24,2.24,0,0,1,2.24-2.24H58.96a2.24,2.24,0,0,1,2.241,2.24Z" transform="translate(-20.777 -48.138)" fill="#f0c020"/>
            <path id="Trazado_230831" data-name="Trazado 230831" d="M61.3,81.908l-3.7-3.739-3.7,3.739V72.082H61.3Z" transform="translate(-29.42 -48.139)" fill="#fc5d3d"/>
          </g>
          <g id="Grupo_163075" data-name="Grupo 163075" transform="translate(86.515 41.793)">
            <path id="Trazado_230832" data-name="Trazado 230832" d="M193.484,107.977h-9.568a1.243,1.243,0,1,1,0-2.485h9.568a1.243,1.243,0,0,1,0,2.485Zm-14.539,0h-1.491a1.243,1.243,0,0,1,0-2.485h1.491a1.243,1.243,0,0,1,0,2.485Z" transform="translate(-176.211 -105.492)" fill="#f8e5b0"/>
          </g>
          <g id="Grupo_163076" data-name="Grupo 163076" transform="translate(20.25 41.793)">
            <path id="Trazado_230833" data-name="Trazado 230833" d="M60.173,107.977H50.6a1.243,1.243,0,1,1,0-2.485h9.569a1.243,1.243,0,1,1,0,2.485Zm-14.539,0H44.143a1.243,1.243,0,1,1,0-2.485h1.491a1.243,1.243,0,0,1,0,2.485Z" transform="translate(-42.9 -105.492)" fill="#f8e5b0"/>
          </g>
          <g id="Grupo_163077" data-name="Grupo 163077">
            <path id="Trazado_230834" data-name="Trazado 230834" d="M99.067,76a1.244,1.244,0,1,1,2.421.572A1.244,1.244,0,0,1,99.067,76Z" transform="translate(-50.882 -48.387)"/>
            <path id="Trazado_230835" data-name="Trazado 230835" d="M244.921,131.826a1.251,1.251,0,0,1,.477-1.7,1.275,1.275,0,0,1,1.69.482,1.242,1.242,0,0,1-2.167,1.213Z" transform="translate(-124.174 -76.017)"/>
            <path id="Trazado_230836" data-name="Trazado 230836" d="M2.16,84.43A17.272,17.272,0,0,1,18.09,67.2V48.839a3.487,3.487,0,0,1,3.483-3.483h20.01a3.487,3.487,0,0,1,3.483,3.483v18.3h4.981V54.263a1.243,1.243,0,1,1,2.485,0V67.142h3.1V51.964a1.243,1.243,0,0,1,2.485,0V67.141H71.9V51.964a1.243,1.243,0,0,1,2.485,0V67.141h3.537V51.613a8.734,8.734,0,0,0-8.7-8.7H61.231a8.723,8.723,0,0,0-6.467,2.878,1.28,1.28,0,0,1-1.755.089,1.24,1.24,0,0,1-.089-1.755,11.2,11.2,0,0,1,6.824-3.595,6.631,6.631,0,0,1-1.562-4.278V27.129A5.723,5.723,0,0,1,63.9,21.413H74.746a1.242,1.242,0,0,1,1.243,1.243v3.359a4.729,4.729,0,0,1-3.722,4.613v5.627a6.631,6.631,0,0,1-1.561,4.277,11.2,11.2,0,0,1,9.7,11.082V67.142h3.952v-18.3a3.487,3.487,0,0,1,3.483-3.483h20.01a3.487,3.487,0,0,1,3.483,3.483V67.2a17.21,17.21,0,0,1,10.457,4.611,1.241,1.241,0,0,1,.06,1.755,1.274,1.274,0,0,1-1.755.06,14.792,14.792,0,0,0-10.027-3.994h-90.7a14.8,14.8,0,0,0,.081,29.6h90.536a14.812,14.812,0,0,0,14.509-17.72v0a1.242,1.242,0,0,1,2.436-.487,17.446,17.446,0,0,1,.338,3.415,17.26,17.26,0,0,1-17.6,17.283v23.177H122.7a1.243,1.243,0,1,1,0,2.485H6.735a1.243,1.243,0,1,1,0-2.485H19.761v-7.708a1.243,1.243,0,0,1,2.485,0v7.708h5.372V101.713H22.246v5.527a1.243,1.243,0,1,1-2.485,0v-5.527A17.264,17.264,0,0,1,2.16,84.43ZM30.1,124.889h15.79a7.193,7.193,0,0,1,6.381-5.912V101.713H30.1Zm50.886,0a4.708,4.708,0,0,0-4.567-3.457h0l-7.116,0v3.452H80.99Zm-5.813-23.173H69.305v17.235l5.872,0Zm-8.358,0h-3.7v23.177h3.7ZM48.432,124.885h12.2v-3.457H52.965a4.707,4.707,0,0,0-4.533,3.457Zm12.2-23.173H54.761v17.23h5.872Zm46.542,23.173V101.714H101.8v23.172Zm-7.857-23.173H77.662v17.344a7.2,7.2,0,0,1,5.865,5.833h15.79ZM65.633,40.429a4.18,4.18,0,0,0,4.148-4.175V30.736H60.668v5.518a4.18,4.18,0,0,0,4.148,4.175ZM60.667,28.251H71.023A2.258,2.258,0,0,0,73.5,26.014V23.9H63.9a3.235,3.235,0,0,0-3.231,3.231ZM95.383,47.842V53.4l1.577-1.593a1.243,1.243,0,0,1,1.766,0L100.3,53.4V47.842Zm-8.543,19.3h22.006v-18.3a1,1,0,0,0-1-1h-5.06v8.583a1.244,1.244,0,0,1-2.125.874l-2.82-2.848L95.024,57.3a1.244,1.244,0,0,1-2.125-.874V47.841h-5.06a1,1,0,0,0-1,1v18.3Zm-57.722-19.3V53.4L30.7,51.811a1.243,1.243,0,0,1,1.766,0L34.039,53.4V47.842Zm-8.543,1v18.3H42.582v-18.3a1,1,0,0,0-1-1h-5.06v8.583A1.244,1.244,0,0,1,34.4,57.3l-2.82-2.848L28.759,57.3a1.243,1.243,0,0,1-2.125-.874V47.841h-5.06a1,1,0,0,0-1,1Z" transform="translate(-2.16 -21.413)"/>
            <path id="Trazado_230837" data-name="Trazado 230837" d="M117.512,128.4a9.837,9.837,0,1,1,0,19.675H26.977a9.837,9.837,0,0,1,0-19.675Zm-30.178,2.485a7.352,7.352,0,1,0,7.352,7.352A7.36,7.36,0,0,0,87.334,130.882Zm-30.178,0a7.352,7.352,0,1,0,7.352,7.352A7.36,7.36,0,0,0,57.156,130.882Zm-30.178,14.7a7.352,7.352,0,1,0-7.352-7.352A7.36,7.36,0,0,0,26.977,145.587Zm23.665,0a9.794,9.794,0,0,1,0-14.7H33.491a9.794,9.794,0,0,1,0,14.7Zm30.178,0a9.793,9.793,0,0,1,0-14.7H63.669a9.793,9.793,0,0,1,0,14.7Zm30.178,0a9.794,9.794,0,0,1,0-14.7H93.848a9.794,9.794,0,0,1,0,14.7Zm6.514-14.7a7.352,7.352,0,1,0,7.352,7.352A7.36,7.36,0,0,0,117.512,130.882Z" transform="translate(-9.694 -75.219)"/>
            <path id="Trazado_230838" data-name="Trazado 230838" d="M214.5,139.1a4.517,4.517,0,1,1-4.517,4.517A4.523,4.523,0,0,1,214.5,139.1Zm0,2.485a2.032,2.032,0,1,0,2.032,2.032A2.034,2.034,0,0,0,214.5,141.585Z" transform="translate(-106.68 -80.602)"/>
            <path id="Trazado_230839" data-name="Trazado 230839" d="M149.268,143.617a4.517,4.517,0,1,1,4.517,4.517A4.523,4.523,0,0,1,149.268,143.617Zm2.485,0a2.032,2.032,0,1,0,2.032-2.032A2.034,2.034,0,0,0,151.753,143.617Z" transform="translate(-76.146 -80.602)"/>
            <path id="Trazado_230840" data-name="Trazado 230840" d="M88.556,143.617a4.517,4.517,0,1,1,4.517,4.517A4.523,4.523,0,0,1,88.556,143.617Zm2.485,0a2.032,2.032,0,1,0,2.032-2.032A2.034,2.034,0,0,0,91.041,143.617Z" transform="translate(-45.611 -80.602)"/>
            <path id="Trazado_230841" data-name="Trazado 230841" d="M32.36,148.135a4.517,4.517,0,1,1,4.517-4.517A4.523,4.523,0,0,1,32.36,148.135Zm0-2.485a2.032,2.032,0,1,0-2.032-2.032A2.034,2.034,0,0,0,32.36,145.649Z" transform="translate(-15.077 -80.602)"/>
            <circle id="Elipse_6937" data-name="Elipse 6937" cx="1.243" cy="1.243" r="1.243" transform="translate(17.601 89.555)"/>
          </g>
        </g>
      </g>
    </g>
  </g>
</svg>
