<svg xmlns="http://www.w3.org/2000/svg" width="169" height="108.629" viewBox="0 0 169 108.629">
  <g id="Grupo_166218" data-name="Grupo 166218" transform="translate(-285 -1633)">
    <g id="Grupo_163925" data-name="Grupo 163925" transform="translate(105.099 -45)">
      <path id="Trazado_113613" data-name="Trazado 113613" d="M-22,0H107a40,40,0,0,1,0,80H-22Z" transform="translate(201.901 1692)" fill="rgba(121,210,220,0.2)"/>
      <g id="Filledoutline" transform="translate(188.558 1646)">
        <path id="Trazado_232713" data-name="Trazado 232713" d="M224,64h59.933V92.094H224Z" transform="translate(-163.637 -24.508)" fill="#f8bc1e"/>
        <path id="Trazado_232714" data-name="Trazado 232714" d="M283.933,72H224v3.746h54.314v1.945A14.911,14.911,0,0,1,263.4,92.6H228.682a2.809,2.809,0,0,0-2.809,2.809v2.809h58.06Z" transform="translate(-163.637 -30.635)" fill="#f5a922"/>
        <path id="Trazado_232715" data-name="Trazado 232715" d="M216,40h63.679v7.492H216Z" transform="translate(-157.51 -6.127)" fill="#f8bc1e"/>
        <path id="Trazado_232716" data-name="Trazado 232716" d="M304,40h22.475V60.6H304Z" transform="translate(-224.908 -6.127)" fill="#f9da62"/>
        <path id="Trazado_232717" data-name="Trazado 232717" d="M304,72h22.475v3.746H304Z" transform="translate(-224.908 -30.635)" fill="#f8bc1e"/>
        <path id="Trazado_232718" data-name="Trazado 232718" d="M224,208h59.933v28.094H224Z" transform="translate(-163.637 -134.796)" fill="#f8bc1e"/>
        <path id="Trazado_232719" data-name="Trazado 232719" d="M283.933,216H224v3.746h54.314v1.945A14.911,14.911,0,0,1,263.4,236.6H228.682a2.809,2.809,0,0,0-2.809,2.809v2.809h58.06Z" transform="translate(-163.637 -140.923)" fill="#f5a922"/>
        <path id="Trazado_232720" data-name="Trazado 232720" d="M216,184h63.679v7.492H216Z" transform="translate(-157.51 -116.415)" fill="#f8bc1e"/>
        <path id="Trazado_232721" data-name="Trazado 232721" d="M304,184h22.475v20.6H304Z" transform="translate(-224.908 -116.415)" fill="#f9da62"/>
        <path id="Trazado_232722" data-name="Trazado 232722" d="M304,216h22.475v3.746H304Z" transform="translate(-224.908 -140.923)" fill="#f8bc1e"/>
        <path id="Trazado_232723" data-name="Trazado 232723" d="M224,352h59.933v28.094H224Z" transform="translate(-163.637 -245.084)" fill="#f8bc1e"/>
        <path id="Trazado_232724" data-name="Trazado 232724" d="M283.933,360H224v3.746h54.314v1.945A14.911,14.911,0,0,1,263.4,380.6H228.682a2.809,2.809,0,0,0-2.809,2.809v2.809h58.06Z" transform="translate(-163.637 -251.211)" fill="#f5a922"/>
        <path id="Trazado_232725" data-name="Trazado 232725" d="M216,328h63.679v7.492H216Z" transform="translate(-157.51 -226.702)" fill="#f8bc1e"/>
        <path id="Trazado_232726" data-name="Trazado 232726" d="M304,328h22.475v20.6H304Z" transform="translate(-224.908 -226.702)" fill="#f9da62"/>
        <path id="Trazado_232727" data-name="Trazado 232727" d="M304,360h22.475v3.746H304Z" transform="translate(-224.908 -251.211)" fill="#f8bc1e"/>
        <path id="Trazado_232728" data-name="Trazado 232728" d="M88,184h52.441v71.17H88Z" transform="translate(-59.476 -116.415)" fill="#0093b9"/>
        <path id="Trazado_232729" data-name="Trazado 232729" d="M16,330.221l3.746-3.746V309.619A5.619,5.619,0,0,1,25.365,304h7.492v7.492l4.682-4.682a3.973,3.973,0,0,1,5.619,5.619l-8.428,8.428a10.6,10.6,0,0,1,0,14.983L25.365,345.2Z" transform="translate(-4.333 -208.321)" fill="#f7c9a8"/>
        <path id="Trazado_232730" data-name="Trazado 232730" d="M80.965,176H28.524a1.873,1.873,0,0,0-1.873,1.873v26.221H21.032a7.5,7.5,0,0,0-7.492,7.492v16.081l-3.2,3.2,2.649,2.649,3.746-3.746a1.873,1.873,0,0,0,.549-1.324V211.585a3.75,3.75,0,0,1,3.746-3.746h5.619v4.843l-3.2,3.2,2.649,2.649L34.53,210.1a2.1,2.1,0,0,1,2.97,2.97L29.072,221.5a1.873,1.873,0,0,0,0,2.649,8.722,8.722,0,0,1,0,12.335l-9.365,9.365,2.649,2.649,4.294-4.294v4.843a1.873,1.873,0,0,0,1.873,1.873H80.965a1.873,1.873,0,0,0,1.873-1.873v-71.17A1.873,1.873,0,0,0,80.965,176Zm-1.873,71.17H30.4v-6.716l1.324-1.324a12.474,12.474,0,0,0,1.226-16.21l7.2-7.2a5.846,5.846,0,1,0-8.268-8.268L30.4,208.936V179.746h48.7Z" transform="translate(0 -110.288)"/>
        <path id="Trazado_232731" data-name="Trazado 232731" d="M275.425,41.365V33.873A1.873,1.873,0,0,0,273.552,32H209.873A1.873,1.873,0,0,0,208,33.873v7.492a1.873,1.873,0,0,0,1.873,1.873V54.475h3.746V43.237H228.6V54.475a1.873,1.873,0,0,0,1.873,1.873H252.95a1.873,1.873,0,0,0,1.873-1.873V43.237h14.983V65.712H237.967v3.746h13.11V73.2h-13.11V76.95h13.11v9.365h-13.11V90.06H252.95a1.873,1.873,0,0,0,1.873-1.873V76.95h14.983V99.425H237.967v3.746h13.11v3.746h-13.11v3.746h13.11v9.365h-13.11v3.746H252.95a1.873,1.873,0,0,0,1.873-1.873V110.662h14.983v22.475H237.967v3.746h33.712a1.873,1.873,0,0,0,1.873-1.873V110.662a1.873,1.873,0,0,0,1.873-1.873V101.3a1.873,1.873,0,0,0-1.873-1.873V76.95a1.873,1.873,0,0,0,1.873-1.873V67.585a1.873,1.873,0,0,0-1.873-1.873V43.237A1.873,1.873,0,0,0,275.425,41.365Zm-20.6,61.806h16.856v3.746H254.823Zm0-33.712h16.856V73.2H254.823Zm-3.746-33.712v3.746H232.348V35.746Zm-39.331,3.746V35.746H228.6v3.746ZM251.077,52.6H232.348V43.237h18.729Zm3.746-16.856h16.856v3.746H254.823Z" transform="translate(-151.383)"/>
        <path id="Trazado_232732" data-name="Trazado 232732" d="M440,432h3.746v3.746H440Z" transform="translate(-329.069 -306.355)"/>
        <path id="Trazado_232733" data-name="Trazado 232733" d="M440,288h3.746v3.746H440Z" transform="translate(-329.069 -196.067)"/>
        <path id="Trazado_232734" data-name="Trazado 232734" d="M440,144h3.746v3.746H440Z" transform="translate(-329.069 -85.779)"/>
        <path id="Trazado_232736" data-name="Trazado 232736" d="M144,256h3.746v3.746H144Z" transform="translate(-102.366 -171.559)"/>
        <path id="Trazado_232737" data-name="Trazado 232737" d="M240,256h3.746v3.746H240Z" transform="translate(-175.891 -171.559)"/>
        <path id="Trazado_232738" data-name="Trazado 232738" d="M160,336h3.746v3.746H160Z" transform="translate(-114.62 -232.83)"/>
        <path id="Trazado_232739" data-name="Trazado 232739" d="M192,336h20.6v3.746H192Z" transform="translate(-139.129 -232.83)"/>
        <path id="Trazado_232740" data-name="Trazado 232740" d="M136,368h33.712v3.746H136Z" transform="translate(-96.239 -257.338)"/>
        <path id="Trazado_232741" data-name="Trazado 232741" d="M136,400h33.712v3.746H136Z" transform="translate(-96.239 -281.846)"/>
        <path id="Trazado_232742" data-name="Trazado 232742" d="M136,432h28.094v3.746H136Z" transform="translate(-96.239 -306.355)"/>
        <path id="Trazado_232743" data-name="Trazado 232743" d="M112,144h33.712v3.746H112Z" transform="translate(-77.858 -85.779)"/>
        <path id="Trazado_232744" data-name="Trazado 232744" d="M272,144h3.746v3.746H272Z" transform="translate(-200.4 -85.779)"/>
      </g>
    </g>
  </g>
</svg>
