<svg xmlns="http://www.w3.org/2000/svg" width="102.377" height="102.377" viewBox="0 0 102.377 102.377">
  <g id="Grupo_166218" data-name="Grupo 166218" transform="translate(8816 6059.237)">
    <g id="inventario" transform="translate(-8817 -6060.237)">
      <g id="Grupo_163921" data-name="Grupo 163921" transform="translate(2.651 2.651)">
        <g id="Grupo_163906" data-name="Grupo 163906" transform="translate(72.655 69.352)">
          <path id="Trazado_232693" data-name="Trazado 232693" d="M70.769,44H46V70.42H70.769a1.656,1.656,0,0,0,1.651-1.651V45.651A1.656,1.656,0,0,0,70.769,44Z" transform="translate(-46 -44)" fill="#d3a06c"/>
        </g>
        <g id="Grupo_163907" data-name="Grupo 163907" transform="translate(36.327 52.84)">
          <path id="Trazado_232694" data-name="Trazado 232694" d="M53.722,50.512H24V35.651A1.652,1.652,0,0,1,25.651,34H53.722Z" transform="translate(-24 -34)" fill="#d3a06c"/>
        </g>
        <g id="Grupo_163908" data-name="Grupo 163908" transform="translate(49.537 16.512)">
          <path id="Trazado_232695" data-name="Trazado 232695" d="M73.281,12H33.651A1.656,1.656,0,0,0,32,13.651V48.327H48.512V36.769a1.656,1.656,0,0,1,1.651-1.651H74.932V13.651A1.656,1.656,0,0,0,73.281,12Z" transform="translate(-32 -12)" fill="#d3a06c"/>
        </g>
        <g id="Grupo_163909" data-name="Grupo 163909" transform="translate(82.562 69.352)">
          <path id="Trazado_232696" data-name="Trazado 232696" d="M52,44h6.6v6.6H52Z" transform="translate(-52 -44)" fill="#b27946"/>
        </g>
        <g id="Grupo_163910" data-name="Grupo 163910" transform="translate(66.05 39.63)">
          <path id="Trazado_232697" data-name="Trazado 232697" d="M71.722,55.722H42V27.651A1.652,1.652,0,0,1,43.651,26h26.42a1.652,1.652,0,0,1,1.651,1.651Z" transform="translate(-42 -26)" fill="#d3a06c"/>
        </g>
        <g id="Grupo_163911" data-name="Grupo 163911" transform="translate(75.957 39.63)">
          <path id="Trazado_232698" data-name="Trazado 232698" d="M48,26h9.907v6.6H48Z" transform="translate(-48 -26)" fill="#b27946"/>
        </g>
        <g id="Grupo_163912" data-name="Grupo 163912" transform="translate(66.05 16.512)">
          <path id="Trazado_232699" data-name="Trazado 232699" d="M42,12h9.907v9.907H42Z" transform="translate(-42 -12)" fill="#b27946"/>
        </g>
        <g id="Grupo_163913" data-name="Grupo 163913" transform="translate(39.63 66.05)">
          <path id="Trazado_232700" data-name="Trazado 232700" d="M52.42,71.722v1.651a1.656,1.656,0,0,1-1.651,1.651H27.651A1.656,1.656,0,0,1,26,73.374V43.651A1.656,1.656,0,0,1,27.651,42H32.6v1.651A1.656,1.656,0,0,0,34.256,45.3h9.907a1.656,1.656,0,0,0,1.651-1.651V42h6.6V71.722Z" transform="translate(-26 -42)" fill="#e6e9ed"/>
        </g>
        <g id="Grupo_163914" data-name="Grupo 163914" transform="translate(46.235 62.747)">
          <path id="Trazado_232701" data-name="Trazado 232701" d="M43.21,43.3v1.651A1.656,1.656,0,0,1,41.559,46.6H31.651A1.656,1.656,0,0,1,30,44.954v-3.3A1.656,1.656,0,0,1,31.651,40h9.907a1.656,1.656,0,0,1,1.651,1.651Z" transform="translate(-30 -40)" fill="#b4dd7f"/>
        </g>
        <g id="Grupo_163915" data-name="Grupo 163915">
          <path id="Trazado_232702" data-name="Trazado 232702" d="M23.169,16.96A7.307,7.307,0,0,0,18.5,23.73v1.387H16.845a4.942,4.942,0,0,0-3.5,1.453,4.874,4.874,0,0,0-1.453,3.5,4.947,4.947,0,0,0,4.954,4.954h1.668L18.5,46.584,12.75,43.132A22.145,22.145,0,0,1,24.143,2H39.979A8.257,8.257,0,0,1,41.63,18.347a7.781,7.781,0,0,1-1.651.165H26.769a4.942,4.942,0,0,1-3.5-1.453l-.1-.1Z" transform="translate(-2 -2)" fill="#656d78"/>
        </g>
        <g id="Grupo_163916" data-name="Grupo 163916" transform="translate(9.891 14.96)">
          <path id="Trazado_232703" data-name="Trazado 232703" d="M37.729,35.73a6.6,6.6,0,0,1-6.6,6.6h-6.6V51.9a25.77,25.77,0,0,0-9.924-2.956V40.683l.017-11.559H12.944A4.947,4.947,0,0,1,7.99,24.171a4.874,4.874,0,0,1,1.453-3.5,4.942,4.942,0,0,1,3.5-1.453h1.651V17.83a7.307,7.307,0,0,1,4.673-6.77l.1.1a4.942,4.942,0,0,0,3.5,1.453h13.21a7.781,7.781,0,0,0,1.651-.165v4.112a3.245,3.245,0,0,0,.561,1.833l2.147,3.22a3.723,3.723,0,0,1,.594,2,3.575,3.575,0,0,1-1.981,3.2l-.413.2a1.656,1.656,0,0,0-.908,1.486Z" transform="translate(-7.99 -11.06)" fill="#f0d0b4"/>
        </g>
        <g id="Grupo_163917" data-name="Grupo 163917" transform="translate(26.42 75.957)">
          <path id="Trazado_232704" data-name="Trazado 232704" d="M31.21,56.256v9.907a4.947,4.947,0,0,0-4.954-4.954L18,52.954,22.954,48Z" transform="translate(-18 -48)" fill="#b4dd7f"/>
        </g>
        <g id="Grupo_163918" data-name="Grupo 163918" transform="translate(3.302 52.84)">
          <path id="Trazado_232705" data-name="Trazado 232705" d="M27.117,70.327v9.907h-6.6A16.518,16.518,0,0,1,4,63.722V55.351A23.874,23.874,0,0,1,17.193,34a25.77,25.77,0,0,1,9.924,2.956A26.364,26.364,0,0,1,37.025,46.1v.017a25.769,25.769,0,0,1,3.154,7.15l.149.545V65.374l-8.256-8.256-2.824-2.824a1.666,1.666,0,0,0-1.156-.479,4.285,4.285,0,0,0-4.277,4.277,1.666,1.666,0,0,0,.479,1.156l2.824,2.824,8.256,8.256H33.722V70.08a3.062,3.062,0,0,0-5.8-1.371Z" transform="translate(-4 -34)" fill="#f57c22"/>
        </g>
        <g id="Grupo_163919" data-name="Grupo 163919" transform="translate(26.42 85.865)">
          <path id="Trazado_232706" data-name="Trazado 232706" d="M26.256,57.3a4.954,4.954,0,0,1,0,9.907H18V57.3l.809-1.618a3.062,3.062,0,0,1,5.8,1.371V57.3Z" transform="translate(-18 -54)" fill="#f0d0b4"/>
        </g>
        <g id="Grupo_163920" data-name="Grupo 163920" transform="translate(23.117 72.655)">
          <path id="Trazado_232707" data-name="Trazado 232707" d="M24.256,49.3,19.3,54.256l-2.824-2.824A1.666,1.666,0,0,1,16,50.277,4.285,4.285,0,0,1,20.277,46a1.666,1.666,0,0,1,1.156.479Z" transform="translate(-16 -46)" fill="#aab2bd"/>
        </g>
      </g>
      <g id="Grupo_163922" data-name="Grupo 163922" transform="translate(1 1)">
        <path id="Trazado_232708" data-name="Trazado 232708" d="M23.6,16.651a1.651,1.651,0,1,1-3.3,0V15H17v1.651a4.954,4.954,0,0,0,9.907,0V15H23.6Z" transform="translate(9.42 8.117)"/>
        <path id="Trazado_232709" data-name="Trazado 232709" d="M100.074,70.352V43.932a3.306,3.306,0,0,0-3.3-3.3V20.815a3.306,3.306,0,0,0-3.3-3.3H53.84a3.306,3.306,0,0,0-3.3,3.3V53.84H40.63a3.306,3.306,0,0,0-3.3,3.3v5.667a28.2,28.2,0,0,0-6.6-5.3V50.537h4.954a8.266,8.266,0,0,0,8.256-8.256l0-7.234.411-.2a5.238,5.238,0,0,0,2.015-7.591L44.21,24.033a1.642,1.642,0,0,1-.277-.915V20.237A9.9,9.9,0,0,0,40.63,1H24.791A23.791,23.791,0,0,0,12.55,45.192L17.5,48.161l-.007,6.331A25.4,25.4,0,0,0,4.3,76.848v8.365a18.185,18.185,0,0,0,18.164,18.164H37.327a6.539,6.539,0,0,0,3.956-1.349,3.291,3.291,0,0,0,2.649,1.349H67.05a3.306,3.306,0,0,0,3.3-3.3h29.722a3.306,3.306,0,0,0,3.3-3.3V73.655A3.306,3.306,0,0,0,100.074,70.352Zm-29.722,0V43.932h6.6v6.6h13.21v-6.6h6.6v26.42Zm16.512,3.3h3.3v3.3h-3.3Zm-6.6-29.722h6.6v3.3h-6.6ZM70.352,20.815h6.6v6.6h-6.6Zm-16.512,0H67.05v9.907H80.26V20.815H93.47V40.63H70.352a3.306,3.306,0,0,0-3.3,3.3v3.3h-3.3v3.3h3.3v3.3H53.84ZM40.63,57.142H67.05V67.05h-3.3a3.306,3.306,0,0,0-3.3-3.3H50.537a3.306,3.306,0,0,0-3.3,3.3h-3.3a3.286,3.286,0,0,0-2.612,1.306c-.216-.4-.456-.776-.69-1.159Zm19.818,13.21H50.537v-3.3h9.907ZM38.089,90.245l-6.683-6.683,2.619-2.619,6.6,6.6v3.537A6.521,6.521,0,0,0,38.089,90.245ZM27.42,79.576a2.623,2.623,0,0,1,2.619-2.619l1.651,1.651-2.619,2.619Zm14.042-53.71,2.147,3.22a1.935,1.935,0,0,1-.743,2.8l-.41.2a3.281,3.281,0,0,0-1.826,2.954V40.63h-3.3a3.306,3.306,0,0,1-3.3-3.3h-3.3a6.612,6.612,0,0,0,6.6,6.6h3a4.947,4.947,0,0,1-4.65,3.3H24.117v3.3h3.3v5.325a27.667,27.667,0,0,0-6.625-1.82l.021-20.018H17.491a3.3,3.3,0,1,1,0-6.6h3.3l.012-3.03a5.653,5.653,0,0,1,2.784-4.825,6.549,6.549,0,0,0,3.837,1.25H40.63v2.3a4.94,4.94,0,0,0,.832,2.748ZM14.25,42.362A20.49,20.49,0,0,1,24.791,4.3H40.63a6.6,6.6,0,1,1,0,13.21H27.42a3.3,3.3,0,0,1,0-6.6V7.6a6.612,6.612,0,0,0-6.6,6.6,6.525,6.525,0,0,0,.651,2.81,8.969,8.969,0,0,0-3.965,7.1h-.01a6.6,6.6,0,1,0,0,13.21h.02L17.5,44.314ZM7.6,85.213V76.848A22.1,22.1,0,0,1,19.463,57.2a24.739,24.739,0,0,1,21.075,18l.092.335v7.35l-8.256-8.256a3.327,3.327,0,0,0-2.335-.968,5.927,5.927,0,0,0-5.921,5.921,3.327,3.327,0,0,0,.968,2.335l5.469,5.469A4.658,4.658,0,0,0,28.4,89.47l-.348.7H22.466a4.96,4.96,0,0,1-4.954-4.954V73.655h-3.3V85.213a8.266,8.266,0,0,0,8.256,8.256H27.42v6.6H22.466A14.877,14.877,0,0,1,7.6,85.213Zm29.722,14.861h-6.6V92.208l.631-1.262a1.41,1.41,0,0,1,2.672.631V93.47h3.3a3.3,3.3,0,0,1,0,6.6Zm6.6,0V70.352h3.3a3.306,3.306,0,0,0,3.3,3.3h9.907a3.306,3.306,0,0,0,3.3-3.3h3.3v29.722Zm26.42-26.42h3.3V96.772h-3.3Zm29.722,23.117H76.957V73.655h6.6v6.6H93.47v-6.6h6.6Z" transform="translate(-1 -1)"/>
        <path id="Trazado_232710" data-name="Trazado 232710" d="M45,39h3.3v3.3H45Z" transform="translate(27.655 23.747)"/>
        <path id="Trazado_232711" data-name="Trazado 232711" d="M49,39h3.3v3.3H49Z" transform="translate(30.26 23.747)"/>
        <path id="Trazado_232712" data-name="Trazado 232712" d="M35,29h3.3v3.3H35Z" transform="translate(21.142 17.235)"/>
      </g>
    </g>
  </g>
</svg>
