<svg xmlns="http://www.w3.org/2000/svg" xmlns:xlink="http://www.w3.org/1999/xlink" width="169" height="109.923" viewBox="0 0 169 109.923">
  <defs>
    <clipPath id="clip-path">
      <rect id="Rectángulo_45867" data-name="Rectángulo 45867" width="17.55" height="17.55" fill="none"/>
    </clipPath>
  </defs>
  <g id="Grupo_166230" data-name="Grupo 166230" transform="translate(1692.167 9984.642)">
    <g id="Grupo_166228" data-name="Grupo 166228">
      <g id="Grupo_163976" data-name="Grupo 163976" transform="translate(-1930.334 -12078.642)">
        <path id="Trazado_113613" data-name="Trazado 113613" d="M-22,0H107a40,40,0,0,1,0,80H-22Z" transform="translate(260.167 2109)" fill="rgba(121,210,220,0.2)"/>
        <g id="fecha-especial" transform="translate(253.235 2094)">
          <g id="Grupo_163958" data-name="Grupo 163958" transform="translate(19.542 1.61)">
            <g id="Grupo_163948" data-name="Grupo 163948" transform="translate(0)">
              <g id="Grupo_163929" data-name="Grupo 163929" transform="translate(0 6.16)">
                <path id="Trazado_232745" data-name="Trazado 232745" d="M120.035,36.193h-90.2a4.4,4.4,0,0,0-4.4,4.4v12.32h99V40.593A4.4,4.4,0,0,0,120.035,36.193Z" transform="translate(-25.433 -36.193)" fill="#fed935"/>
              </g>
              <g id="Grupo_163930" data-name="Grupo 163930" transform="translate(0 6.16)">
                <path id="Trazado_232746" data-name="Trazado 232746" d="M37.769,44.993a3.316,3.316,0,0,1-3.316-3.316V36.193h-4.62a4.4,4.4,0,0,0-4.4,4.4v12.32H39.939V44.181A3.3,3.3,0,0,1,37.769,44.993Z" transform="translate(-25.433 -36.193)" fill="#fda829"/>
              </g>
              <g id="Grupo_163931" data-name="Grupo 163931" transform="translate(0 99.228)">
                <path id="Trazado_232747" data-name="Trazado 232747" d="M25.433,469.684v5.275a2.2,2.2,0,0,0,2.2,2.2h94.6a2.2,2.2,0,0,0,2.2-2.2v-5.275Z" transform="translate(-25.433 -469.684)" fill="#cdbfba"/>
              </g>
              <g id="Grupo_163932" data-name="Grupo 163932" transform="translate(0 99.228)">
                <path id="Trazado_232748" data-name="Trazado 232748" d="M39.939,474.959v-5.275H25.433v5.275a2.2,2.2,0,0,0,2.2,2.2H42.139A2.2,2.2,0,0,1,39.939,474.959Z" transform="translate(-25.433 -469.684)" fill="#b9acac"/>
              </g>
              <g id="Grupo_163933" data-name="Grupo 163933" transform="translate(0 92.182)">
                <path id="Trazado_232749" data-name="Trazado 232749" d="M25.433,436.867h99v7.26h-99Z" transform="translate(-25.433 -436.867)" fill="#e1d3ce"/>
              </g>
              <path id="Trazado_232750" data-name="Trazado 232750" d="M25.433,436.867H39.939v7.26H25.433Z" transform="translate(-25.433 -344.685)" fill="#cdbfba"/>
              <path id="Trazado_232751" data-name="Trazado 232751" d="M25.433,114.073v69.3h62.82l-8.659-8.659a1.073,1.073,0,0,1,0-1.518l5.1-5.1a1.073,1.073,0,0,1,1.518,0l12.9,12.9a4.656,4.656,0,0,1,1.276,2.379h24.047v-69.3Z" transform="translate(-25.433 -91.193)" fill="#f3eae6"/>
              <g id="Grupo_163934" data-name="Grupo 163934" transform="translate(0 22.88)">
                <path id="Trazado_232752" data-name="Trazado 232752" d="M25.433,114.073H39.939v69.3H25.433Z" transform="translate(-25.433 -114.073)" fill="#e1d3ce"/>
              </g>
              <g id="Grupo_163942" data-name="Grupo 163942" transform="translate(10.175 31.681)">
                <path id="Trazado_232753" data-name="Trazado 232753" d="M94.266,161.683a.65.65,0,0,0,.012-.114v-5.862a.644.644,0,0,0-.644-.644H73.471a.644.644,0,0,0-.644.644v5.862a.644.644,0,0,0,.644.644H92.2A20.453,20.453,0,0,1,94.266,161.683Z" transform="translate(-72.827 -155.063)" fill="#fda829"/>
                <g id="Grupo_163935" data-name="Grupo 163935" transform="translate(0 0)">
                  <path id="Trazado_232754" data-name="Trazado 232754" d="M78.231,161.569v-5.862a.644.644,0,0,1,.644-.644h-5.4a.644.644,0,0,0-.644.644v5.862a.644.644,0,0,0,.644.644h5.4A.644.644,0,0,1,78.231,161.569Z" transform="translate(-72.827 -155.063)" fill="#f57c22"/>
                </g>
                <path id="Trazado_232755" data-name="Trazado 232755" d="M226.85,155.063H206.688a.644.644,0,0,0-.644.644v5.8a20.41,20.41,0,0,1,3.085.709h17.722a.644.644,0,0,0,.644-.644v-5.862a.644.644,0,0,0-.644-.644Z" transform="translate(-177.443 -155.063)" fill="#fda829"/>
                <path id="Trazado_232756" data-name="Trazado 232756" d="M209.128,162.213h2.964a.644.644,0,0,1-.644-.644v-5.862a.644.644,0,0,1,.644-.644h-5.4a.644.644,0,0,0-.644.644v5.8A20.43,20.43,0,0,1,209.128,162.213Z" transform="translate(-177.442 -155.063)" fill="#f57c22"/>
                <g id="Grupo_163936" data-name="Grupo 163936" transform="translate(57.201 0)">
                  <path id="Trazado_232757" data-name="Trazado 232757" d="M339.26,155.707v5.862a.644.644,0,0,0,.644.644h20.162a.644.644,0,0,0,.644-.644v-5.862a.644.644,0,0,0-.644-.644H339.9A.644.644,0,0,0,339.26,155.707Z" transform="translate(-339.26 -155.063)" fill="#fda829"/>
                </g>
                <g id="Grupo_163937" data-name="Grupo 163937" transform="translate(57.201 0)">
                  <path id="Trazado_232758" data-name="Trazado 232758" d="M344.664,161.569v-5.862a.644.644,0,0,1,.644-.644h-5.4a.644.644,0,0,0-.644.644v5.862a.644.644,0,0,0,.644.644h5.4A.644.644,0,0,1,344.664,161.569Z" transform="translate(-339.26 -155.063)" fill="#f57c22"/>
                </g>
                <path id="Trazado_232759" data-name="Trazado 232759" d="M79.977,226.674v-2.138a.644.644,0,0,0-.644-.644H73.471a.644.644,0,0,0-.644.644V230.4a.644.644,0,0,0,.644.644h4.906A20.417,20.417,0,0,1,79.977,226.674Z" transform="translate(-72.827 -209.115)" fill="#b9acac"/>
                <path id="Trazado_232760" data-name="Trazado 232760" d="M279.158,223.891H273.3a.644.644,0,0,0-.644.644v.351a20.433,20.433,0,0,1,2.611,6.155h3.895a.644.644,0,0,0,.644-.644v-5.862A.644.644,0,0,0,279.158,223.891Z" transform="translate(-229.751 -209.114)" fill="#b9acac"/>
                <path id="Trazado_232761" data-name="Trazado 232761" d="M345.766,231.042H339.9a.644.644,0,0,1-.644-.644v-5.862a.644.644,0,0,1,.644-.644h5.862a.644.644,0,0,1,.644.644V230.4A.644.644,0,0,1,345.766,231.042Z" transform="translate(-282.059 -209.115)" fill="#b9acac"/>
                <g id="Grupo_163938" data-name="Grupo 163938" transform="translate(71.502 14.777)">
                  <path id="Trazado_232762" data-name="Trazado 232762" d="M412.375,231.042h-5.862a.644.644,0,0,1-.644-.644v-5.862a.644.644,0,0,1,.644-.644h5.862a.644.644,0,0,1,.644.644V230.4A.644.644,0,0,1,412.375,231.042Z" transform="translate(-405.869 -223.892)" fill="#fe99a0"/>
                </g>
                <path id="Trazado_232763" data-name="Trazado 232763" d="M77.991,292.72h-4.52a.644.644,0,0,0-.644.644v5.862a.644.644,0,0,0,.644.644h5.862a.644.644,0,0,0,.644-.644v-.081A20.415,20.415,0,0,1,77.991,292.72Z" transform="translate(-72.827 -263.166)" fill="#b9acac"/>
                <path id="Trazado_232764" data-name="Trazado 232764" d="M281.461,292.72h-3.508a20.412,20.412,0,0,1-2.368,7.149h5.877a.644.644,0,0,0,.644-.644v-5.862A.644.644,0,0,0,281.461,292.72Z" transform="translate(-232.054 -263.166)" fill="#b9acac"/>
                <path id="Trazado_232765" data-name="Trazado 232765" d="M345.766,299.87H339.9a.644.644,0,0,1-.644-.644v-5.862a.644.644,0,0,1,.644-.644h5.862a.644.644,0,0,1,.644.644v5.862A.644.644,0,0,1,345.766,299.87Z" transform="translate(-282.059 -263.166)" fill="#b9acac"/>
                <g id="Grupo_163939" data-name="Grupo 163939" transform="translate(71.502 29.554)">
                  <path id="Trazado_232766" data-name="Trazado 232766" d="M412.375,299.87h-5.862a.644.644,0,0,1-.644-.644v-5.862a.644.644,0,0,1,.644-.644h5.862a.644.644,0,0,1,.644.644v5.862A.644.644,0,0,1,412.375,299.87Z" transform="translate(-405.869 -292.72)" fill="#fe99a0"/>
                </g>
                <g id="Grupo_163940" data-name="Grupo 163940" transform="translate(0 44.331)">
                  <path id="Trazado_232767" data-name="Trazado 232767" d="M79.333,368.7H73.471a.644.644,0,0,1-.644-.644v-5.862a.644.644,0,0,1,.644-.644h5.862a.644.644,0,0,1,.644.644v5.862A.644.644,0,0,1,79.333,368.7Z" transform="translate(-72.827 -361.549)" fill="#b9acac"/>
                  <path id="Trazado_232768" data-name="Trazado 232768" d="M139.992,361.589a.642.642,0,0,0-.557.635v5.862a.644.644,0,0,0,.644.644h5.862a.644.644,0,0,0,.644-.644v-3.918A20.421,20.421,0,0,1,139.992,361.589Z" transform="translate(-125.135 -361.58)" fill="#b9acac"/>
                  <path id="Trazado_232769" data-name="Trazado 232769" d="M206.044,365.507v3.74a.644.644,0,0,0,.644.644h5.862a.644.644,0,0,0,.644-.644v-5.862a.637.637,0,0,0-.087-.318A20.411,20.411,0,0,1,206.044,365.507Z" transform="translate(-177.443 -362.741)" fill="#b9acac"/>
                  <path id="Trazado_232770" data-name="Trazado 232770" d="M345.766,368.7H339.9a.644.644,0,0,1-.644-.644v-5.862a.644.644,0,0,1,.644-.644h5.862a.644.644,0,0,1,.644.644v5.862A.644.644,0,0,1,345.766,368.7Z" transform="translate(-282.059 -361.549)" fill="#b9acac"/>
                </g>
                <g id="Grupo_163941" data-name="Grupo 163941" transform="translate(71.502 44.331)">
                  <path id="Trazado_232771" data-name="Trazado 232771" d="M412.375,368.7h-5.862a.644.644,0,0,1-.644-.644v-5.862a.644.644,0,0,1,.644-.644h5.862a.644.644,0,0,1,.644.644v5.862A.644.644,0,0,1,412.375,368.7Z" transform="translate(-405.869 -361.549)" fill="#fe99a0"/>
                </g>
              </g>
              <g id="Grupo_163947" data-name="Grupo 163947" transform="translate(9.02)">
                <g id="Grupo_163943" data-name="Grupo 163943" transform="translate(0 0)">
                  <path id="Trazado_232772" data-name="Trazado 232772" d="M70.764,22.461a3.316,3.316,0,0,1-3.316-3.316V10.817a3.316,3.316,0,1,1,6.632,0v8.328A3.316,3.316,0,0,1,70.764,22.461Z" transform="translate(-67.448 -7.501)" fill="#fed935"/>
                </g>
                <g id="Grupo_163944" data-name="Grupo 163944" transform="translate(74.329 0)">
                  <path id="Trazado_232773" data-name="Trazado 232773" d="M416.976,22.461a3.316,3.316,0,0,1-3.316-3.316V10.817a3.316,3.316,0,1,1,6.632,0v8.328A3.316,3.316,0,0,1,416.976,22.461Z" transform="translate(-413.66 -7.501)" fill="#fda829"/>
                </g>
                <g id="Grupo_163945" data-name="Grupo 163945" transform="translate(74.329)">
                  <path id="Trazado_232774" data-name="Trazado 232774" d="M416.739,19.144V10.816a3.314,3.314,0,0,1,1.777-2.936,3.314,3.314,0,0,0-4.855,2.936v8.328a3.314,3.314,0,0,0,4.855,2.936A3.314,3.314,0,0,1,416.739,19.144Z" transform="translate(-413.66 -7.5)" fill="#f57c22"/>
                </g>
                <g id="Grupo_163946" data-name="Grupo 163946" transform="translate(0)">
                  <path id="Trazado_232775" data-name="Trazado 232775" d="M70.526,19.144V10.816A3.314,3.314,0,0,1,72.3,7.88a3.314,3.314,0,0,0-4.855,2.936v8.328A3.314,3.314,0,0,0,72.3,22.08,3.314,3.314,0,0,1,70.526,19.144Z" transform="translate(-67.448 -7.5)" fill="#f57c22"/>
                </g>
              </g>
            </g>
            <g id="Grupo_163957" data-name="Grupo 163957" transform="translate(6.629 29.381)">
              <g id="Grupo_163949" data-name="Grupo 163949" transform="translate(40.796 40.787)">
                <path id="Trazado_232776" data-name="Trazado 232776" d="M258.217,341.317l-6.988-6.988a20.514,20.514,0,0,1-4.9,4.9l6.989,6.989Z" transform="translate(-246.329 -334.329)" fill="#fff"/>
              </g>
              <g id="Grupo_163950" data-name="Grupo 163950">
                <circle id="Elipse_6948" data-name="Elipse 6948" cx="20.556" cy="20.556" r="20.556" transform="translate(0 29.066) rotate(-45)" fill="#01c0fa"/>
              </g>
              <path id="Trazado_232777" data-name="Trazado 232777" d="M108.846,216.346a14.085,14.085,0,0,1,0-23.58,20.572,20.572,0,0,1,12.273-8.257,20.556,20.556,0,1,0,0,40.094A20.572,20.572,0,0,1,108.846,216.346Z" transform="translate(-87.479 -175.488)" fill="#08a9f1"/>
              <g id="Grupo_163956" data-name="Grupo 163956" transform="translate(9.145 9.145)">
                <g id="Grupo_163951" data-name="Grupo 163951">
                  <circle id="Elipse_6949" data-name="Elipse 6949" cx="14.089" cy="14.089" r="14.089" transform="translate(0 19.922) rotate(-45)" fill="#f2fbff"/>
                </g>
                <g id="Grupo_163952" data-name="Grupo 163952" transform="translate(5.844 5.835)">
                  <path id="Trazado_232778" data-name="Trazado 232778" d="M133.4,228.212A14.093,14.093,0,0,1,143.849,214.6a14.089,14.089,0,1,0,0,27.225A14.093,14.093,0,0,1,133.4,228.212Z" transform="translate(-126.123 -214.123)" fill="#dff6fd"/>
                </g>
                <g id="g165" transform="translate(11.385 10.612)">
                  <g id="g167" transform="translate(0)">
                    <g id="Grupo_163975" data-name="Grupo 163975">
                      <g id="Grupo_163974" data-name="Grupo 163974" clip-path="url(#clip-path)">
                        <g id="g169" transform="translate(0.891 0.052)">
                          <g id="g175" transform="translate(0.343 4.74)">
                            <g id="path177">
                              <g id="Grupo_163962" data-name="Grupo 163962">
                                <path id="Trazado_232794" data-name="Trazado 232794" d="M376.774,421.37c0,3.794-3.376,6.87-7.541,6.87s-7.541-3.076-7.541-6.87a6.661,6.661,0,0,1,2.9-5.415,3.1,3.1,0,0,0,2.975.495,4.955,4.955,0,0,0-1.376,2.924,2.693,2.693,0,0,1,1.478-.967c.241-.086,1.449-.682,1.449-1.279h0c0,.6.908.892,1.149.978.349.125,1.125-.1,1.778.666a3.979,3.979,0,0,0-1.376-2.667,3.351,3.351,0,0,0,2.935-.332,6.7,6.7,0,0,1,3.168,5.6" transform="translate(-361.692 -415.773)" fill="#f46370"/>
                              </g>
                            </g>
                          </g>
                          <g id="g179" transform="translate(0 4.397)">
                            <g id="path181">
                              <g id="Grupo_163963" data-name="Grupo 163963">
                                <path id="Trazado_232795" data-name="Trazado 232795" d="M362.406,421.755a8.22,8.22,0,0,1-5.563-2.1,6.871,6.871,0,0,1-2.321-5.111,6.648,6.648,0,0,1,.83-3.225,7.459,7.459,0,0,1,2.214-2.469.343.343,0,0,1,.416.014,2.791,2.791,0,0,0,2.665.43.343.343,0,0,1,.407.469,1.587,1.587,0,0,1-.251.343,4.473,4.473,0,0,0-.92,1.516,2.855,2.855,0,0,1,.716-.32l.128-.043a3.861,3.861,0,0,0,.733-.405c.361-.255.489-.456.489-.551a.343.343,0,0,1,.343-.343h0a.343.343,0,0,1,.343.343c0,.123.115.371.888.644l.034.012a1.411,1.411,0,0,0,.277.032,2.629,2.629,0,0,1,.906.181,3.293,3.293,0,0,0-.919-1.4,1.254,1.254,0,0,1-.29-.352.343.343,0,0,1,.407-.469,3.047,3.047,0,0,0,2.648-.285.343.343,0,0,1,.38,0,7.519,7.519,0,0,1,2.413,2.516,6.743,6.743,0,0,1,.911,3.369,6.871,6.871,0,0,1-2.321,5.111A8.22,8.22,0,0,1,362.406,421.755Zm-4.643-12.2a6.263,6.263,0,0,0-2.555,4.988c0,3.6,3.229,6.527,7.2,6.527s7.2-2.928,7.2-6.527a6.357,6.357,0,0,0-2.831-5.188,3.4,3.4,0,0,1-2,.438,3.635,3.635,0,0,1,.792,2.136.343.343,0,0,1-.6.239,1.447,1.447,0,0,0-1.167-.495,1.7,1.7,0,0,1-.466-.07l-.031-.011a2.84,2.84,0,0,1-1-.552,2.8,2.8,0,0,1-.437.373,4.522,4.522,0,0,1-.9.491c-.049.017-.1.033-.147.049a2.254,2.254,0,0,0-1.185.817.343.343,0,0,1-.6-.239,4.366,4.366,0,0,1,.889-2.41,3.529,3.529,0,0,1-1-.065A3.171,3.171,0,0,1,357.763,409.555Z" transform="translate(-354.522 -408.603)"/>
                              </g>
                            </g>
                          </g>
                          <g id="g183" transform="translate(6.832 3.533)">
                            <g id="path185">
                              <g id="Grupo_163964" data-name="Grupo 163964">
                                <path id="Trazado_232796" data-name="Trazado 232796" d="M497.821,391.4l-.38-.871h0c.113.255.282.639.378.871" transform="translate(-497.441 -390.533)" fill="#ff3939"/>
                              </g>
                            </g>
                          </g>
                          <g id="g187" transform="translate(6.489 3.19)">
                            <g id="path189">
                              <g id="Grupo_163965" data-name="Grupo 163965">
                                <path id="Trazado_232797" data-name="Trazado 232797" d="M490.993,384.919a.343.343,0,0,1-.314-.206l-.38-.871a.344.344,0,0,1,.63-.276c.178.4.306.7.381.879a.343.343,0,0,1-.317.474Z" transform="translate(-490.271 -383.363)"/>
                              </g>
                            </g>
                          </g>
                          <g id="g191" transform="translate(2.058 0.342)">
                            <g id="path193">
                              <g id="Grupo_163966" data-name="Grupo 163966">
                                <path id="Trazado_232798" data-name="Trazado 232798" d="M402.34,326.982l-.1-.224.1.224c.113.255.282.639.378.871Zm4.748.032a5.023,5.023,0,0,0-2.785-.284h-.464c-.451-1.17-1.335-2.785-2.091-2.925s-.781.8-.381,1.4a17.251,17.251,0,0,1,.861,1.522,5.009,5.009,0,0,0-2.759.289,1.4,1.4,0,0,1-1.9-.4,4.023,4.023,0,0,0,1.185,1.753,3.1,3.1,0,0,0,2.975.495,4.954,4.954,0,0,0-1.376,2.924,2.693,2.693,0,0,1,1.478-.967c.241-.086,1.449-.682,1.449-1.279h0c0,.6.908.892,1.149.978.349.125,1.125-.1,1.778.666a3.979,3.979,0,0,0-1.376-2.667,3.351,3.351,0,0,0,2.935-.332,3.452,3.452,0,0,0,1.226-1.571,1.4,1.4,0,0,1-1.9.4" transform="translate(-397.565 -323.791)" fill="#78d0a9"/>
                              </g>
                            </g>
                          </g>
                          <g id="g195" transform="translate(1.715)">
                            <g id="path197">
                              <g id="Grupo_163967" data-name="Grupo 163967">
                                <path id="Trazado_232799" data-name="Trazado 232799" d="M393.52,325.312a.343.343,0,0,1-.342-.36,4.366,4.366,0,0,1,.889-2.41,3.535,3.535,0,0,1-1-.065,3.2,3.2,0,0,1-1.363-.661,4.366,4.366,0,0,1-1.3-1.919.343.343,0,0,1,.623-.274c.044.074.463.707,1.469.258a5.07,5.07,0,0,1,2.294-.389c-.21-.386-.393-.7-.541-.918a1.545,1.545,0,0,1-.152-1.593.821.821,0,0,1,.88-.332c1.039.192,1.964,2.207,2.26,2.919h.2a5.334,5.334,0,0,1,2.959.314c1.006.449,1.424-.185,1.469-.259a.343.343,0,0,1,.619.285,3.794,3.794,0,0,1-1.357,1.744,3.373,3.373,0,0,1-2.2.564,3.635,3.635,0,0,1,.792,2.136.343.343,0,0,1-.6.239,1.447,1.447,0,0,0-1.167-.495,1.7,1.7,0,0,1-.466-.07l-.031-.011a2.841,2.841,0,0,1-1-.552,2.8,2.8,0,0,1-.437.373,4.524,4.524,0,0,1-.9.491c-.049.017-.1.033-.147.049a2.255,2.255,0,0,0-1.185.817A.343.343,0,0,1,393.52,325.312ZM394.9,321.7a.343.343,0,0,1,.313.482,1.586,1.586,0,0,1-.251.343,4.473,4.473,0,0,0-.92,1.515,2.857,2.857,0,0,1,.716-.32l.128-.043a3.863,3.863,0,0,0,.733-.405c.361-.255.489-.456.489-.551a.343.343,0,0,1,.343-.343h0a.343.343,0,0,1,.343.343c0,.123.115.371.888.644l.034.012a1.411,1.411,0,0,0,.277.032,2.631,2.631,0,0,1,.906.18,3.293,3.293,0,0,0-.919-1.4,1.254,1.254,0,0,1-.29-.352.343.343,0,0,1,.407-.469,3.048,3.048,0,0,0,2.648-.285,2.77,2.77,0,0,0,.427-.361,2.238,2.238,0,0,1-1.051-.217h0a4.714,4.714,0,0,0-2.573-.262.348.348,0,0,1-.072.008h-.464a.343.343,0,0,1-.32-.22c-.543-1.408-1.365-2.624-1.834-2.711-.142-.026-.17.017-.183.035a.922.922,0,0,0,.149.836,16.9,16.9,0,0,1,.881,1.555.35.35,0,0,1,.016.035l.007.014.1.226c.122.275.287.651.381.879a.343.343,0,0,1-.631.268l-.38-.871h0l-.037-.085a4.619,4.619,0,0,0-2.38.293,2.158,2.158,0,0,1-1.181.2,3.185,3.185,0,0,0,.541.574,2.79,2.79,0,0,0,2.665.43A.342.342,0,0,1,394.9,321.7Z" transform="translate(-390.394 -316.629)"/>
                              </g>
                            </g>
                          </g>
                          <g id="g199" transform="translate(6.735 3.309)">
                            <g id="path201">
                              <g id="Grupo_163968" data-name="Grupo 163968">
                                <path id="Trazado_232800" data-name="Trazado 232800" d="M495.882,386.946l-.38-.871-.1-.224.1.224c.113.255.282.639.378.871" transform="translate(-495.405 -385.851)" fill="#79ff3b"/>
                              </g>
                            </g>
                          </g>
                          <g id="g203" transform="translate(6.392 2.966)">
                            <g id="path205">
                              <g id="Grupo_163969" data-name="Grupo 163969">
                                <path id="Trazado_232801" data-name="Trazado 232801" d="M489.053,380.46a.343.343,0,0,1-.314-.206l-.477-1.1a.343.343,0,0,1,.627-.278l.1.226c.177.4.306.7.381.879a.343.343,0,0,1-.317.474Z" transform="translate(-488.233 -378.679)"/>
                              </g>
                            </g>
                          </g>
                          <g id="g207" transform="translate(1.508 9.994)">
                            <g id="path209">
                              <g id="Grupo_163970" data-name="Grupo 163970">
                                <path id="Trazado_232802" data-name="Trazado 232802" d="M392.447,531.874a6.644,6.644,0,0,1-4.5-1.7,5.565,5.565,0,0,1-1.879-4.14.343.343,0,1,1,.686,0,5.448,5.448,0,0,0,5.69,5.153.343.343,0,0,1,0,.686Z" transform="translate(-386.071 -525.693)"/>
                              </g>
                            </g>
                          </g>
                          <g id="g211" transform="translate(9.3 15.682)">
                            <g id="path213" transform="translate(0 0)">
                              <g id="Grupo_163971" data-name="Grupo 163971">
                                <path id="Trazado_232803" data-name="Trazado 232803" d="M549.061,644.68" transform="translate(-549.061 -644.68)" fill="none" stroke="#000" stroke-linecap="round" stroke-linejoin="round" stroke-width="26.667"/>
                              </g>
                            </g>
                          </g>
                          <g id="g215" transform="translate(6.735 3.309)">
                            <g id="path217">
                              <g id="Grupo_163972" data-name="Grupo 163972">
                                <path id="Trazado_232804" data-name="Trazado 232804" d="M495.882,386.946l-.38-.871-.1-.224.1.224c.113.255.282.639.378.871" transform="translate(-495.405 -385.851)" fill="#79ff3b"/>
                              </g>
                            </g>
                          </g>
                          <g id="g219" transform="translate(6.392 2.966)">
                            <g id="path221">
                              <g id="Grupo_163973" data-name="Grupo 163973">
                                <path id="Trazado_232805" data-name="Trazado 232805" d="M489.053,380.46a.343.343,0,0,1-.314-.206l-.477-1.1a.343.343,0,0,1,.627-.278l.1.226c.177.4.306.7.381.879a.343.343,0,0,1-.317.474Z" transform="translate(-488.233 -378.679)"/>
                              </g>
                            </g>
                          </g>
                        </g>
                      </g>
                    </g>
                  </g>
                </g>
              </g>
            </g>
          </g>
          <g id="Grupo_163959" data-name="Grupo 163959" transform="translate(73.389 78.2)">
            <path id="Trazado_232781" data-name="Trazado 232781" d="M296.072,384.072a4.68,4.68,0,0,1-6.619,0l-12.9-12.9a1.073,1.073,0,0,1,0-1.518l5.1-5.1a1.073,1.073,0,0,1,1.518,0l12.9,12.9A4.68,4.68,0,0,1,296.072,384.072Z" transform="translate(-276.239 -364.239)" fill="#01c0fa"/>
          </g>
          <g id="Grupo_163960" data-name="Grupo 163960" transform="translate(73.389 78.2)">
            <path id="Trazado_232782" data-name="Trazado 232782" d="M294.984,384.072l-12.9-12.9a1.073,1.073,0,0,1,0-1.518l3.094-3.094-2.006-2.006a1.073,1.073,0,0,0-1.518,0l-5.1,5.1a1.073,1.073,0,0,0,0,1.518l12.9,12.9a4.677,4.677,0,0,0,6.075.46A4.7,4.7,0,0,1,294.984,384.072Z" transform="translate(-276.239 -364.24)" fill="#08a9f1"/>
          </g>
          <g id="Grupo_163961" data-name="Grupo 163961" transform="translate(17.932 0)">
            <path id="Trazado_232783" data-name="Trazado 232783" d="M114.144,6.16h-3.01V4.926a4.926,4.926,0,1,0-9.853,0V6.16h-9.91a1.61,1.61,0,0,0,0,3.22h9.91v3.874a4.926,4.926,0,1,0,9.853,0V9.381h3.01a2.793,2.793,0,0,1,2.79,2.79v10.71H21.153V12.171a2.793,2.793,0,0,1,2.79-2.79h3.01v3.874a4.926,4.926,0,0,0,9.853,0V9.381H83.857a1.61,1.61,0,0,0,0-3.22H36.805V4.926a4.926,4.926,0,0,0-9.853,0V6.16h-3.01a6.017,6.017,0,0,0-6.01,6.01v93.942a3.815,3.815,0,0,0,3.81,3.81h94.6a3.815,3.815,0,0,0,3.81-3.81V12.171a6.017,6.017,0,0,0-6.01-6.01Zm-6.23,7.094a1.706,1.706,0,0,1-3.412,0V4.926a1.706,1.706,0,0,1,3.412,0ZM30.173,4.926a1.706,1.706,0,0,1,3.412,0v8.328a1.706,1.706,0,0,1-3.412,0Zm86.762,101.186a.591.591,0,0,1-.59.59h-94.6a.59.59,0,0,1-.59-.59v-3.45H44.139a1.61,1.61,0,1,0,0-3.22H21.153V95.4H81.7l3.768,3.768c.094.094.192.184.291.272h-34.1a1.61,1.61,0,1,0,0,3.22h65.281ZM55.249,79.006A18.946,18.946,0,1,1,74.195,60.06,18.967,18.967,0,0,1,55.249,79.006Zm8.609,1.48v2.676h-3.93V81.727A21.964,21.964,0,0,0,63.858,80.486Zm-14.3,1v1.678h-3.93V80.027A22.009,22.009,0,0,0,49.558,81.484Zm-.69-42.653H31.328V34.9h18.23v3.734Q49.211,38.727,48.868,38.831Zm11.061-.439V34.9h18.23v3.93H61.63Q60.792,38.579,59.928,38.392ZM72.171,74.359l4.255,4.255L73.8,81.237l-4.255-4.255A22.361,22.361,0,0,0,72.171,74.359Zm7.392,5.673,12.52,12.52a3.07,3.07,0,1,1-4.341,4.341l-12.52-12.52Zm37.372,19.41H94.069c.1-.088.2-.177.291-.272a6.259,6.259,0,0,0,1.8-3.768h20.773v4.04Zm0-7.26H95.664a6.254,6.254,0,0,0-1.3-1.907l-3.893-3.893h2.958a2.257,2.257,0,0,0,2.254-2.254V78.266a2.257,2.257,0,0,0-2.254-2.254H87.563a2.257,2.257,0,0,0-2.254,2.254v2.958L81.46,77.375a2.667,2.667,0,0,0-1.9-.786,2.706,2.706,0,0,0-.55.057l-4.923-4.923c.025-.04.05-.079.074-.119h4.961a2.257,2.257,0,0,0,2.254-2.254V63.489a2.257,2.257,0,0,0-2.254-2.254H77.384q.031-.584.031-1.175a22.223,22.223,0,0,0-.236-3.232h1.946a2.257,2.257,0,0,0,2.254-2.254V48.712a2.257,2.257,0,0,0-2.254-2.254H73.262a2.238,2.238,0,0,0-.482.055,22.354,22.354,0,0,0-4.623-4.462H79.124A2.257,2.257,0,0,0,81.378,39.8V33.935a2.257,2.257,0,0,0-2.254-2.254H58.962a2.257,2.257,0,0,0-2.254,2.254v4.007c-.483-.032-.969-.049-1.459-.049a22.308,22.308,0,0,0-2.471.138v-4.1a2.257,2.257,0,0,0-2.254-2.254H30.362a2.257,2.257,0,0,0-2.254,2.254V39.8a2.257,2.257,0,0,0,2.254,2.254H42.339a22.352,22.352,0,0,0-4.869,4.785,2.239,2.239,0,0,0-1.246-.378H30.362a2.257,2.257,0,0,0-2.254,2.254v5.862a2.257,2.257,0,0,0,2.254,2.254h2.957a22.253,22.253,0,0,0-.236,3.232q0,.591.031,1.175H30.362a2.257,2.257,0,0,0-2.254,2.254v5.862a2.257,2.257,0,0,0,2.254,2.254h5.862c.036,0,.071,0,.106-.005a22.344,22.344,0,0,0,6.085,6.524c0,.047-.008.094-.008.143v5.862a2.257,2.257,0,0,0,2.254,2.254h5.862a2.257,2.257,0,0,0,2.254-2.254v-2.04a22.308,22.308,0,0,0,2.471.138c.49,0,.977-.018,1.459-.049v1.951a2.257,2.257,0,0,0,2.254,2.254h5.862a2.257,2.257,0,0,0,2.254-2.254V79.066l4.757,4.757a2.707,2.707,0,0,0-.057.55,2.667,2.667,0,0,0,.786,1.9l5.911,5.911H21.153V26.1h95.782V92.182Zm-28.405-9.02v-3.93h3.93v3.93ZM76.457,53.608a22.033,22.033,0,0,0-1.628-3.93h3.33v3.93Zm.52,10.847h1.182v3.93H75.791a21.977,21.977,0,0,0,1.186-3.93ZM34.041,53.608H31.328v-3.93h3.93v.81A22.011,22.011,0,0,0,34.041,53.608Zm.665,14.777H31.328v-3.93h2.193a21.959,21.959,0,0,0,1.186,3.93Z" transform="translate(-17.932 0)"/>
            <path id="Trazado_232784" data-name="Trazado 232784" d="M334.015,157.934h20.162a2.257,2.257,0,0,0,2.254-2.254v-5.862a2.257,2.257,0,0,0-2.254-2.254H334.015a2.257,2.257,0,0,0-2.254,2.254v5.862A2.257,2.257,0,0,0,334.015,157.934Zm.966-7.15h18.23v3.93h-18.23Z" transform="translate(-264.384 -115.882)"/>
            <path id="Trazado_232785" data-name="Trazado 232785" d="M334.015,226.762h5.862a2.257,2.257,0,0,0,2.254-2.254v-5.862a2.257,2.257,0,0,0-2.254-2.254h-5.862a2.257,2.257,0,0,0-2.254,2.254v5.862A2.257,2.257,0,0,0,334.015,226.762Zm.966-7.15h3.93v3.93h-3.93Z" transform="translate(-264.384 -169.933)"/>
            <path id="Trazado_232786" data-name="Trazado 232786" d="M334.015,295.59h5.862a2.257,2.257,0,0,0,2.254-2.254v-5.862a2.257,2.257,0,0,0-2.254-2.254h-5.862a2.257,2.257,0,0,0-2.254,2.254v5.862A2.257,2.257,0,0,0,334.015,295.59Zm.966-7.15h3.93v3.93h-3.93Z" transform="translate(-264.384 -223.985)"/>
            <path id="Trazado_232787" data-name="Trazado 232787" d="M67.581,364.42h5.862a2.257,2.257,0,0,0,2.254-2.254V356.3a2.257,2.257,0,0,0-2.254-2.254H67.581a2.257,2.257,0,0,0-2.254,2.254v5.862a2.257,2.257,0,0,0,2.254,2.254Zm.966-7.15h3.93v3.93h-3.93Z" transform="translate(-55.152 -278.037)"/>
            <path id="Trazado_232788" data-name="Trazado 232788" d="M406.484,216.392h-5.862a2.257,2.257,0,0,0-2.254,2.254v5.862a2.257,2.257,0,0,0,2.254,2.254h5.862a2.257,2.257,0,0,0,2.254-2.254v-5.862A2.257,2.257,0,0,0,406.484,216.392Zm-.966,7.15h-3.93v-3.93h3.93Z" transform="translate(-316.691 -169.934)"/>
            <path id="Trazado_232789" data-name="Trazado 232789" d="M406.484,285.22h-5.862a2.257,2.257,0,0,0-2.254,2.254v5.862a2.257,2.257,0,0,0,2.254,2.254h5.862a2.257,2.257,0,0,0,2.254-2.254v-5.862A2.257,2.257,0,0,0,406.484,285.22Zm-.966,7.15h-3.93v-3.93h3.93Z" transform="translate(-316.691 -223.985)"/>
            <path id="Trazado_232790" data-name="Trazado 232790" d="M406.484,354.048h-5.862a2.257,2.257,0,0,0-2.254,2.254v5.862a2.257,2.257,0,0,0,2.254,2.254h5.862a2.257,2.257,0,0,0,2.254-2.254V356.3A2.257,2.257,0,0,0,406.484,354.048Zm-.966,7.15h-3.93v-3.93h3.93Z" transform="translate(-316.691 -278.036)"/>
            <path id="Trazado_232791" data-name="Trazado 232791" d="M124.506,67.193a1.61,1.61,0,0,0,1.61,1.61h53.241a1.61,1.61,0,1,0,0-3.22H126.116A1.61,1.61,0,0,0,124.506,67.193Z" transform="translate(-101.625 -51.503)"/>
            <path id="Trazado_232792" data-name="Trazado 232792" d="M149.176,227.407a1.61,1.61,0,1,0-3.047-1.043,12.477,12.477,0,1,1,.4-6.657,1.61,1.61,0,1,0,3.15-.672,15.7,15.7,0,1,0-.5,8.372Z" transform="translate(-97.006 -162.263)"/>
          </g>
        </g>
      </g>
    </g>
  </g>
</svg>
